<svg width="945" height="546" viewBox="0 0 945 546" fill="none" xmlns="http://www.w3.org/2000/svg">
<path d="M449.5 273C263.9 102.6 70.8333 20 -2.5 0H-92V667L945 681.5V599.5C792.5 568 681.5 486 449.5 273Z" fill="#C3D6FD"/>
<path opacity="0.7" d="M55.144 348.2C125.208 383.296 238.792 383.296 308.856 348.2C378.92 313.104 378.912 256.2 308.856 221.104C238.8 186.008 125.208 186.008 55.144 221.104C-14.92 256.2 -14.912 313.104 55.144 348.2Z" fill="#F5F5F5"/>
<path d="M303.488 227.952L275.384 211.728V151.464L303.488 167.696V227.952Z" fill="#E0E0E0"/>
<path d="M303.488 167.696L343.632 144.512V204.776L303.488 227.952V167.696Z" fill="#EBEBEB"/>
<path d="M343.632 144.512L303.488 167.696L275.384 151.464L315.528 128.288L343.632 144.512Z" fill="#F5F5F5"/>
<path d="M307.496 170.008L339.616 151.464L340.352 151.896V174.216L308.24 192.76L307.496 192.328V170.008Z" fill="#E6E6E6"/>
<path d="M320.824 166.952L326.288 163.8C327 163.392 327.568 163.576 327.568 164.216C327.517 164.61 327.375 164.986 327.152 165.315C326.93 165.645 326.634 165.917 326.288 166.112L320.824 169.312C320.12 169.72 319.544 169.528 319.544 168.888C319.59 168.487 319.73 168.104 319.953 167.767C320.175 167.431 320.474 167.152 320.824 166.952V166.952Z" fill="#E6E6E6"/>
<path d="M306.76 198.256L338.88 179.712L338.872 202.032L339.616 202.456L307.496 221L306.76 220.576V198.256Z" fill="#E0E0E0"/>
<path d="M307.496 198.68L339.616 180.136V202.456L307.496 221V198.68Z" fill="#F5F5F5"/>
<path d="M320.088 195.192L325.552 192.04C326.256 191.632 326.832 191.816 326.832 192.456C326.78 192.851 326.637 193.228 326.415 193.558C326.193 193.888 325.898 194.163 325.552 194.36L320.088 197.512C319.376 197.92 318.8 197.736 318.8 197.096C318.853 196.701 318.997 196.323 319.221 195.993C319.444 195.663 319.741 195.388 320.088 195.192V195.192Z" fill="#E6E6E6"/>
<path d="M307.496 170.008L339.616 151.464V173.792L307.496 192.328V170.008Z" fill="#E0E0E0"/>
<path d="M355.672 162.496L338.096 152.344V172.008L355.672 182.16V162.496Z" fill="#E6E6E6"/>
<path d="M319.544 195.504V167.688L326.432 163.696L327.568 165.376L347.648 153.784V179.28L319.544 195.504Z" fill="#EBEBEB"/>
<path d="M319.544 195.504L321.552 171.168L349.648 154.944L347.648 179.28L319.544 195.504Z" fill="#FAFAFA"/>
<path d="M323.56 181.04L308.232 172.192V191.856L323.552 200.704L323.56 181.04Z" fill="#E6E6E6"/>
<path d="M323.56 179.28L355.672 160.736V183.056L323.552 201.6L323.56 179.28Z" fill="#F5F5F5"/>
<path d="M336.144 175.8L341.608 172.648C342.312 172.24 342.888 172.424 342.888 173.064C342.836 173.459 342.693 173.836 342.471 174.166C342.249 174.496 341.954 174.771 341.608 174.968L336.144 178.12C335.432 178.528 334.864 178.344 334.864 177.704C334.916 177.31 335.059 176.932 335.281 176.602C335.503 176.272 335.798 175.997 336.144 175.8V175.8Z" fill="#E6E6E6"/>
<path d="M323.56 179.28L322.488 178.664V200.984L323.56 201.6V179.28Z" fill="#E0E0E0"/>
<path d="M322.488 178.664L354.6 160.12L355.672 160.736L323.56 179.28L322.488 178.664Z" fill="#F0F0F0"/>
<path d="M284.904 232.8C285.096 228.184 288.736 218.448 293.768 212.64C298.8 206.832 306.704 203.176 311.992 205.224C316.904 207.136 316.104 213.656 309.88 217.744C303.656 221.832 294.336 226.92 291.376 234.304L285.424 243.28L284.904 232.8Z" fill="#407BFF"/>
<path opacity="0.1" d="M284.904 232.8C285.096 228.184 288.736 218.448 293.768 212.64C298.8 206.832 306.704 203.176 311.992 205.224C316.904 207.136 316.104 213.656 309.88 217.744C303.656 221.832 294.336 226.92 291.376 234.304L285.424 243.28L284.904 232.8Z" fill="black"/>
<path d="M310.04 207.48C304.056 208.872 286.84 220.944 285.24 238.216" stroke="white" stroke-width="1.02594" stroke-miterlimit="10" stroke-linecap="round"/>
<path d="M286.424 251.144C286.704 246.344 290.792 242.888 296.176 239.728C302.576 235.984 308.096 234.296 310.04 230.608C311.984 226.92 308.504 222.752 301.904 224.952C296.304 226.816 285.496 236.408 285.424 243.28L286.424 251.144Z" fill="#407BFF"/>
<path d="M305.864 227.88C297.024 229.904 287.144 237.944 285.816 246.368" stroke="white" stroke-miterlimit="10" stroke-linecap="round"/>
<path d="M39.2321 178.304V317.336L181.528 235.176V108.784L75.7201 169.872L72.0641 159.344L39.2321 178.304Z" fill="#263238"/>
<path d="M39.2321 317.336L46.5281 190.936L188.824 108.784L181.528 235.176L39.2321 317.336Z" fill="white"/>
<path d="M39.2321 317.336L50.1761 193.048L192.472 110.888L181.528 235.176L39.2321 317.336Z" fill="#37474F"/>
<path d="M77.248 205.312V344.344L219.552 262.184V135.792L113.736 196.88L110.088 186.352L77.248 205.312Z" fill="#407BFF"/>
<g opacity="0.1">
<path opacity="0.1" d="M77.248 205.312V344.344L219.552 262.184V135.792L113.736 196.88L110.088 186.352L77.248 205.312Z" fill="black"/>
</g>
<path d="M128.928 295.8C128.489 295.504 128.126 295.108 127.869 294.645C127.612 294.182 127.467 293.665 127.448 293.136V119.672C127.48 119.124 127.641 118.592 127.92 118.119C128.198 117.646 128.585 117.246 129.048 116.952L237.944 54.064C238.399 53.7786 238.922 53.6225 239.459 53.6124C239.995 53.6024 240.525 53.7388 240.989 54.007C241.454 54.2752 241.837 54.665 242.097 55.1346C242.357 55.6042 242.484 56.1357 242.464 56.672V230.12C242.431 230.668 242.269 231.2 241.991 231.672C241.713 232.145 241.327 232.545 240.864 232.84L131.976 295.72C131.51 295.973 130.991 296.112 130.462 296.126C129.932 296.14 129.406 296.028 128.928 295.8V295.8Z" fill="#EBEBEB"/>
<path d="M130.4 123L174.632 94.056L171.688 92.36L129.024 116.992C128.561 117.286 128.174 117.686 127.895 118.159C127.617 118.632 127.456 119.164 127.424 119.712V121.312L130.4 123Z" fill="#EBEBEB"/>
<path d="M145.144 128.072L127.912 118.12C127.627 118.589 127.467 119.123 127.448 119.672V293.112C127.428 293.648 127.555 294.18 127.815 294.649C128.075 295.119 128.458 295.509 128.923 295.777C129.388 296.045 129.917 296.182 130.453 296.172C130.99 296.162 131.514 296.005 131.968 295.72L145.144 288.12V128.072Z" fill="#E0E0E0"/>
<path d="M131.976 295.72L240.888 232.84C241.351 232.545 241.737 232.145 242.015 231.672C242.293 231.2 242.455 230.668 242.488 230.12V56.672C242.488 55.672 241.784 55.264 240.888 55.768L131.968 118.648C131.505 118.945 131.119 119.346 130.841 119.82C130.563 120.294 130.401 120.827 130.368 121.376V294.816C130.4 295.8 131.104 296.224 131.976 295.72Z" fill="#E6E6E6"/>
<path d="M139.44 161.4L165.592 146.304C167.328 145.304 168.736 146.016 168.736 147.904C168.659 148.959 168.334 149.982 167.788 150.888C167.242 151.794 166.489 152.559 165.592 153.12L139.44 168.248C137.704 169.248 136.296 168.536 136.296 166.648C136.371 165.588 136.694 164.56 137.24 163.648C137.787 162.736 138.54 161.966 139.44 161.4V161.4Z" fill="#F5F5F5"/>
<path d="M137.552 189.04L140.936 187.088C141.632 186.688 142.192 187.008 142.192 187.808V191.72C142.169 192.156 142.043 192.581 141.825 192.959C141.607 193.337 141.302 193.658 140.936 193.896L137.552 195.848C136.864 196.248 136.296 195.928 136.296 195.12V191.216C136.321 190.78 136.447 190.357 136.665 189.979C136.884 189.601 137.187 189.279 137.552 189.04V189.04Z" fill="#FAFAFA"/>
<path d="M146.72 185.456L167.168 173.648C168.032 173.144 168.768 173.504 168.768 174.448C168.727 174.978 168.56 175.491 168.282 175.945C168.004 176.398 167.622 176.779 167.168 177.056L146.72 188.856C145.848 189.36 145.12 189 145.12 188.056C145.161 187.527 145.328 187.015 145.606 186.563C145.884 186.111 146.266 185.731 146.72 185.456V185.456Z" fill="#F5F5F5"/>
<path d="M137.552 202.664L140.936 200.704C141.632 200.304 142.192 200.632 142.192 201.432V205.344C142.169 205.78 142.043 206.205 141.825 206.583C141.607 206.961 141.302 207.282 140.936 207.52L137.552 209.472C136.864 209.872 136.296 209.544 136.296 208.744V204.84C136.321 204.404 136.447 203.981 136.665 203.603C136.884 203.225 137.187 202.903 137.552 202.664V202.664Z" fill="#FAFAFA"/>
<path d="M146.72 199.072L167.168 187.272C168.032 186.768 168.768 187.12 168.768 188.072C168.726 188.602 168.559 189.114 168.281 189.568C168.003 190.021 167.621 190.402 167.168 190.68L146.72 202.48C145.848 202.984 145.12 202.624 145.12 201.68C145.163 201.15 145.33 200.638 145.608 200.184C145.886 199.731 146.267 199.35 146.72 199.072Z" fill="#F5F5F5"/>
<path d="M137.552 216.28L140.936 214.328C141.632 213.928 142.192 214.248 142.192 215.056V219C142.169 219.436 142.043 219.861 141.825 220.239C141.607 220.617 141.302 220.938 140.936 221.176L137.552 223.128C136.864 223.536 136.296 223.208 136.296 222.408V218.496C136.315 218.053 136.438 217.622 136.657 217.236C136.875 216.851 137.182 216.523 137.552 216.28V216.28Z" fill="#FAFAFA"/>
<path d="M146.72 212.696L167.168 200.888C168.032 200.384 168.768 200.744 168.768 201.688C168.726 202.219 168.559 202.733 168.281 203.188C168.003 203.642 167.622 204.025 167.168 204.304L146.72 216.096C145.848 216.6 145.12 216.248 145.12 215.296C145.161 214.767 145.328 214.255 145.606 213.803C145.884 213.351 146.266 212.971 146.72 212.696Z" fill="#F5F5F5"/>
<path d="M137.552 229.936L140.936 227.984C141.632 227.584 142.192 227.912 142.192 228.712V232.6C142.169 233.036 142.043 233.461 141.825 233.839C141.607 234.217 141.302 234.538 140.936 234.776L137.552 236.728C136.864 237.136 136.296 236.808 136.296 236.008V232.096C136.323 231.663 136.451 231.243 136.669 230.868C136.887 230.493 137.189 230.174 137.552 229.936Z" fill="#FAFAFA"/>
<path d="M146.72 226.352L167.168 214.544C168.032 214.04 168.768 214.4 168.768 215.344C168.726 215.875 168.559 216.389 168.281 216.844C168.003 217.298 167.622 217.681 167.168 217.96L146.72 229.752C145.848 230.256 145.12 229.904 145.12 228.952C145.163 228.423 145.33 227.912 145.608 227.46C145.886 227.008 146.267 226.628 146.72 226.352V226.352Z" fill="#F5F5F5"/>
<path d="M137.872 258.416L152.4 250.016C153.264 249.512 154 249.872 154 250.816C153.959 251.346 153.792 251.859 153.514 252.313C153.236 252.766 152.854 253.147 152.4 253.424L137.848 261.832C136.976 262.328 136.248 261.976 136.248 261.032C136.292 260.498 136.462 259.983 136.744 259.528C137.027 259.073 137.413 258.692 137.872 258.416V258.416Z" fill="#F5F5F5"/>
<path d="M137.872 265.224L167.168 248.312C168.032 247.808 168.768 248.168 168.768 249.112C168.726 249.643 168.559 250.157 168.281 250.612C168.003 251.066 167.622 251.449 167.168 251.728L137.872 268.6C137 269.104 136.272 268.744 136.272 267.8C136.319 267.276 136.489 266.77 136.767 266.322C137.044 265.875 137.423 265.499 137.872 265.224V265.224Z" fill="#F0F0F0"/>
<path d="M137.872 265.224L158.32 253.4C159.184 252.904 159.92 253.256 159.92 254.2C159.878 254.73 159.711 255.242 159.433 255.696C159.154 256.149 158.773 256.53 158.32 256.808L137.872 268.6C137 269.104 136.272 268.744 136.272 267.8C136.319 267.276 136.489 266.77 136.767 266.322C137.044 265.875 137.423 265.499 137.872 265.224V265.224Z" fill="#FAFAFA"/>
<path d="M137.872 272.032L152.4 263.624C153.264 263.128 154 263.48 154 264.424C153.957 264.954 153.79 265.466 153.512 265.919C153.234 266.372 152.853 266.754 152.4 267.032L137.848 275.432C136.976 275.936 136.248 275.576 136.248 274.632C136.292 274.101 136.462 273.587 136.745 273.135C137.027 272.683 137.414 272.304 137.872 272.032V272.032Z" fill="#F5F5F5"/>
<path d="M137.872 244.8L152.4 236.4C153.264 235.904 154 236.256 154 237.2C153.957 237.73 153.79 238.242 153.512 238.695C153.234 239.148 152.853 239.53 152.4 239.808L137.848 248.208C136.976 248.712 136.248 248.352 136.248 247.408C136.293 246.876 136.464 246.362 136.746 245.909C137.029 245.455 137.414 245.075 137.872 244.8V244.8Z" fill="#F5F5F5"/>
<path d="M137.872 251.616L167.168 234.696C168.032 234.2 168.768 234.552 168.768 235.496C168.725 236.026 168.558 236.538 168.28 236.991C168.002 237.444 167.621 237.826 167.168 238.104L137.872 255C137 255.504 136.272 255.144 136.272 254.2C136.316 253.674 136.483 253.165 136.762 252.716C137.04 252.267 137.42 251.89 137.872 251.616V251.616Z" fill="#F0F0F0"/>
<path d="M137.872 251.616L148.272 245.616C149.144 245.112 149.872 245.472 149.872 246.416C149.831 246.947 149.664 247.461 149.386 247.916C149.108 248.371 148.726 248.753 148.272 249.032L137.872 255.024C137 255.528 136.272 255.168 136.272 254.224C136.312 253.693 136.478 253.18 136.756 252.726C137.035 252.273 137.417 251.892 137.872 251.616Z" fill="#FAFAFA"/>
<path d="M137.872 278.84L167.168 261.928C168.032 261.424 168.768 261.784 168.768 262.728C168.727 263.258 168.56 263.771 168.282 264.225C168.004 264.678 167.622 265.059 167.168 265.336L137.872 282.256C137 282.752 136.272 282.4 136.272 281.456C136.313 280.925 136.48 280.411 136.758 279.956C137.036 279.501 137.418 279.119 137.872 278.84V278.84Z" fill="#F0F0F0"/>
<path d="M137.872 278.84L164.216 263.64C165.088 263.144 165.816 263.496 165.816 264.44C165.772 264.969 165.604 265.481 165.326 265.934C165.048 266.387 164.668 266.769 164.216 267.048L137.872 282.248C137 282.744 136.272 282.392 136.272 281.448C136.315 280.918 136.482 280.406 136.76 279.952C137.038 279.499 137.419 279.118 137.872 278.84V278.84Z" fill="#FAFAFA"/>
<path d="M240.888 55.8L174.632 94.016V271.088L240.888 232.84C241.351 232.545 241.737 232.145 242.015 231.672C242.293 231.2 242.455 230.668 242.488 230.12V56.672C242.464 55.672 241.76 55.264 240.888 55.8Z" fill="#F5F5F5"/>
<path d="M174.632 100.832V114.448L168.736 121.264H174.632V134.88L236.56 99.128V65.072L174.632 100.832Z" fill="#EBEBEB"/>
<path d="M182.736 101.304L207.824 86.816C209.04 86.12 210.024 86.688 210.024 88.088C209.984 88.8523 209.763 89.5962 209.381 90.2593C208.999 90.9224 208.465 91.4859 207.824 91.904L182.736 106.384C181.52 107.088 180.536 106.52 180.536 105.12C180.577 104.356 180.797 103.612 181.179 102.949C181.562 102.286 182.095 101.722 182.736 101.304V101.304Z" fill="#FAFAFA"/>
<path d="M181.32 112.296L229.88 84.256C230.312 84.008 230.68 84.184 230.68 84.656C230.659 84.9212 230.576 85.1776 230.437 85.4043C230.298 85.631 230.107 85.8215 229.88 85.96L181.32 114C180.888 114.248 180.52 114.072 180.52 113.6C180.541 113.335 180.624 113.078 180.763 112.852C180.902 112.625 181.093 112.435 181.32 112.296V112.296Z" fill="#FAFAFA"/>
<path d="M181.32 117.4L229.88 89.4C230.312 89.144 230.68 89.328 230.68 89.792C230.659 90.0581 230.575 90.3154 230.436 90.5433C230.297 90.7712 230.107 90.9632 229.88 91.104L181.32 119.104C180.888 119.352 180.52 119.176 180.52 118.704C180.543 118.439 180.627 118.184 180.765 117.957C180.904 117.731 181.094 117.54 181.32 117.4Z" fill="#FAFAFA"/>
<path d="M181.32 122.512L229.88 94.512C230.312 94.264 230.68 94.44 230.68 94.912C230.659 95.1772 230.576 95.4336 230.437 95.6603C230.298 95.887 230.107 96.0775 229.88 96.216L181.32 124.256C180.888 124.504 180.52 124.328 180.52 123.856C180.534 123.584 180.615 123.319 180.754 123.085C180.893 122.851 181.088 122.654 181.32 122.512V122.512Z" fill="#FAFAFA"/>
<path d="M183.144 136.792L186.528 134.84C187.224 134.44 187.792 134.76 187.792 135.568V139.472C187.767 139.908 187.64 140.333 187.42 140.711C187.2 141.089 186.895 141.41 186.528 141.648L183.144 143.6C182.456 144 181.888 143.68 181.888 142.88V139C181.908 138.559 182.032 138.129 182.25 137.745C182.469 137.361 182.775 137.034 183.144 136.792Z" fill="white"/>
<path d="M192.312 133.208L212.76 121.4C213.624 120.896 214.36 121.256 214.36 122.2C214.318 122.731 214.151 123.245 213.873 123.7C213.595 124.154 213.214 124.537 212.76 124.816L192.312 136.6C191.44 137.104 190.712 136.752 190.712 135.8C190.754 135.272 190.922 134.762 191.2 134.311C191.478 133.861 191.859 133.482 192.312 133.208V133.208Z" fill="#E0E0E0"/>
<path d="M182.68 148.992L234.184 119.248C234.624 118.992 234.984 119.176 234.984 119.64C234.965 119.906 234.882 120.162 234.743 120.389C234.604 120.616 234.412 120.806 234.184 120.944L182.68 150.696C182.24 150.944 181.88 150.768 181.88 150.296C181.899 150.031 181.982 149.774 182.121 149.547C182.261 149.32 182.452 149.13 182.68 148.992V148.992Z" fill="#E0E0E0"/>
<path d="M182.68 154.096L234.184 124.352C234.624 124.104 234.984 124.28 234.984 124.752C234.965 125.018 234.882 125.274 234.743 125.501C234.604 125.728 234.412 125.918 234.184 126.056L182.68 155.8C182.24 156.048 181.88 155.872 181.88 155.4C181.902 155.135 181.986 154.879 182.125 154.653C182.264 154.426 182.454 154.235 182.68 154.096V154.096Z" fill="#E0E0E0"/>
<path d="M182.68 159.208L234.184 129.464C234.624 129.208 234.984 129.384 234.984 129.856C234.965 130.122 234.882 130.378 234.743 130.605C234.604 130.832 234.412 131.022 234.184 131.16L182.68 160.904C182.24 161.16 181.88 160.984 181.88 160.512C181.899 160.247 181.982 159.99 182.121 159.763C182.261 159.536 182.452 159.346 182.68 159.208V159.208Z" fill="#E0E0E0"/>
<path d="M182.68 164.328L234.184 134.584C234.624 134.328 234.984 134.512 234.984 134.984C234.962 135.249 234.878 135.505 234.739 135.731C234.601 135.958 234.41 136.149 234.184 136.288L182.68 166.032C182.24 166.28 181.88 166.104 181.88 165.632C181.899 165.366 181.982 165.11 182.121 164.883C182.261 164.656 182.452 164.466 182.68 164.328V164.328Z" fill="#E0E0E0"/>
<path d="M183.144 174.248L186.528 172.296C187.224 171.896 187.792 172.224 187.792 173.024V176.928C187.767 177.364 187.64 177.789 187.42 178.167C187.2 178.545 186.895 178.866 186.528 179.104L183.144 181.064C182.456 181.464 181.888 181.136 181.888 180.336V176.432C181.912 175.995 182.038 175.57 182.256 175.19C182.474 174.811 182.778 174.488 183.144 174.248Z" fill="white"/>
<path d="M192.312 170.664L212.76 158.856C213.624 158.36 214.36 158.712 214.36 159.656C214.317 160.186 214.15 160.698 213.872 161.151C213.594 161.604 213.213 161.986 212.76 162.264L192.312 174.072C191.44 174.568 190.712 174.216 190.712 173.272C190.755 172.742 190.922 172.23 191.2 171.776C191.478 171.323 191.859 170.942 192.312 170.664Z" fill="#E0E0E0"/>
<path d="M182.68 186.448L234.184 156.704C234.624 156.456 234.984 156.632 234.984 157.104C234.962 157.369 234.878 157.625 234.739 157.851C234.601 158.078 234.41 158.268 234.184 158.408L182.68 188.152C182.24 188.4 181.88 188.224 181.88 187.752C181.899 187.487 181.982 187.23 182.121 187.003C182.261 186.776 182.452 186.586 182.68 186.448V186.448Z" fill="#E0E0E0"/>
<path d="M182.68 191.552L234.184 161.808C234.624 161.56 234.984 161.736 234.984 162.208C234.965 162.473 234.882 162.73 234.743 162.957C234.604 163.184 234.412 163.374 234.184 163.512L182.68 193.256C182.24 193.512 181.88 193.328 181.88 192.864C181.901 192.598 181.984 192.34 182.123 192.112C182.262 191.884 182.453 191.692 182.68 191.552V191.552Z" fill="#E0E0E0"/>
<path d="M182.68 196.664L234.184 166.92C234.624 166.664 234.984 166.848 234.984 167.312C234.963 167.578 234.88 167.836 234.741 168.064C234.602 168.292 234.411 168.484 234.184 168.624L182.68 198.368C182.24 198.616 181.88 198.44 181.88 197.968C181.899 197.702 181.982 197.445 182.121 197.219C182.261 196.992 182.452 196.801 182.68 196.664V196.664Z" fill="#E0E0E0"/>
<path d="M182.68 201.784L234.184 172.04C234.624 171.792 234.984 171.968 234.984 172.44C234.965 172.705 234.882 172.962 234.743 173.189C234.604 173.416 234.412 173.606 234.184 173.744L182.68 203.488C182.24 203.736 181.88 203.56 181.88 203.088C181.902 202.823 181.986 202.567 182.125 202.341C182.264 202.114 182.454 201.923 182.68 201.784V201.784Z" fill="#E0E0E0"/>
<path d="M187.968 209.256L191.344 207.304C192.04 206.896 192.608 207.224 192.608 208.024V211.936C192.583 212.372 192.456 212.797 192.236 213.175C192.016 213.553 191.711 213.874 191.344 214.112L187.968 216.064C187.272 216.464 186.704 216.144 186.704 215.336V211.432C186.729 210.996 186.857 210.571 187.076 210.193C187.296 209.815 187.601 209.494 187.968 209.256V209.256Z" fill="white"/>
<path d="M182.68 222.528L196.64 214.464C197.072 214.216 197.44 214.392 197.44 214.864C197.42 215.129 197.336 215.386 197.197 215.612C197.058 215.839 196.867 216.029 196.64 216.168L182.68 224.224C182.24 224.48 181.88 224.296 181.88 223.832C181.899 223.566 181.982 223.309 182.121 223.083C182.261 222.856 182.452 222.665 182.68 222.528V222.528Z" fill="#E0E0E0"/>
<path d="M206.744 198.408L210.12 196.456C210.816 196.048 211.384 196.376 211.384 197.176V201.088C211.359 201.524 211.232 201.949 211.012 202.327C210.792 202.705 210.487 203.026 210.12 203.264L206.744 205.216C206.048 205.616 205.48 205.288 205.48 204.488V200.6C205.503 200.161 205.629 199.733 205.849 199.352C206.068 198.971 206.375 198.648 206.744 198.408V198.408Z" fill="white"/>
<path d="M201.456 211.672L215.416 203.616C215.848 203.368 216.216 203.544 216.216 204.016C216.196 204.281 216.112 204.538 215.973 204.764C215.834 204.991 215.643 205.181 215.416 205.32L201.456 213.4C201.016 213.656 200.656 213.472 200.656 213.008C200.673 212.738 200.755 212.475 200.894 212.243C201.033 212.01 201.226 211.815 201.456 211.672V211.672Z" fill="#E0E0E0"/>
<path d="M225.52 187.56L228.896 185.6C229.592 185.2 230.16 185.528 230.16 186.328V190.2C230.136 190.638 230.009 191.064 229.79 191.443C229.57 191.823 229.264 192.145 228.896 192.384L225.52 194.336C224.824 194.736 224.256 194.408 224.256 193.608V189.704C224.286 189.273 224.416 188.855 224.635 188.483C224.855 188.111 225.158 187.795 225.52 187.56V187.56Z" fill="white"/>
<path d="M220.224 200.824L234.184 192.768C234.624 192.52 234.984 192.696 234.984 193.168C234.965 193.434 234.882 193.69 234.743 193.917C234.604 194.144 234.412 194.334 234.184 194.472L220.224 202.528C219.792 202.784 219.424 202.6 219.424 202.128C219.447 201.863 219.531 201.608 219.67 201.381C219.808 201.155 219.998 200.964 220.224 200.824V200.824Z" fill="#E0E0E0"/>
<path d="M182.68 225.848L196.64 217.792C197.072 217.544 197.44 217.72 197.44 218.192C197.418 218.457 197.334 218.712 197.195 218.939C197.056 219.165 196.866 219.356 196.64 219.496L182.68 227.552C182.24 227.8 181.88 227.624 181.88 227.152C181.901 226.887 181.984 226.63 182.123 226.404C182.262 226.177 182.453 225.987 182.68 225.848V225.848Z" fill="#E0E0E0"/>
<path d="M201.456 215L215.416 206.944C215.848 206.688 216.216 206.872 216.216 207.336C216.195 207.602 216.111 207.859 215.972 208.087C215.833 208.315 215.643 208.507 215.416 208.648L201.456 216.704C201.016 216.952 200.656 216.776 200.656 216.304C200.675 216.038 200.758 215.782 200.897 215.555C201.037 215.328 201.228 215.138 201.456 215V215Z" fill="#E0E0E0"/>
<path d="M220.224 204.152L234.184 196.096C234.624 195.84 234.984 196.024 234.984 196.488C234.963 196.754 234.88 197.012 234.741 197.24C234.602 197.468 234.411 197.66 234.184 197.8L220.224 205.856C219.792 206.104 219.424 205.928 219.424 205.456C219.445 205.191 219.528 204.934 219.667 204.708C219.806 204.481 219.997 204.291 220.224 204.152V204.152Z" fill="#E0E0E0"/>
<path d="M182.68 229.176L196.64 221.112C197.072 220.864 197.44 221.04 197.44 221.512C197.42 221.777 197.336 222.034 197.197 222.26C197.058 222.487 196.867 222.677 196.64 222.816L182.68 230.88C182.24 231.128 181.88 230.952 181.88 230.48C181.899 230.215 181.982 229.958 182.121 229.731C182.261 229.504 182.452 229.314 182.68 229.176V229.176Z" fill="#E0E0E0"/>
<path d="M201.456 218.328L215.416 210.264C215.848 210.016 216.216 210.192 216.216 210.664C216.196 210.929 216.112 211.186 215.973 211.412C215.834 211.639 215.643 211.829 215.416 211.968L201.456 220.032C201.016 220.28 200.656 220.104 200.656 219.632C200.675 219.367 200.758 219.11 200.897 218.883C201.037 218.656 201.228 218.466 201.456 218.328V218.328Z" fill="#E0E0E0"/>
<path d="M220.224 207.48L234.184 199.416C234.624 199.168 234.984 199.344 234.984 199.816C234.965 200.081 234.882 200.338 234.743 200.565C234.604 200.792 234.412 200.982 234.184 201.12L220.224 209.176C219.792 209.432 219.424 209.256 219.424 208.784C219.445 208.519 219.528 208.262 219.667 208.036C219.806 207.809 219.997 207.619 220.224 207.48Z" fill="#E0E0E0"/>
<path d="M187.968 237.216L191.344 235.264C192.04 234.864 192.608 235.192 192.608 235.992V239.896C192.583 240.332 192.456 240.757 192.236 241.135C192.016 241.513 191.711 241.834 191.344 242.072L187.968 244.024C187.272 244.432 186.704 244.104 186.704 243.304V239.392C186.729 238.955 186.857 238.531 187.076 238.153C187.296 237.775 187.601 237.454 187.968 237.216Z" fill="white"/>
<path d="M182.68 250.488L196.64 242.432C197.072 242.176 197.44 242.36 197.44 242.824C197.42 243.089 197.336 243.346 197.197 243.572C197.058 243.799 196.867 243.99 196.64 244.128L182.68 252.192C182.24 252.44 181.88 252.264 181.88 251.792C181.899 251.526 181.982 251.27 182.121 251.043C182.261 250.816 182.452 250.626 182.68 250.488V250.488Z" fill="#E0E0E0"/>
<path d="M206.744 226.368L210.12 224.416C210.816 224.016 211.384 224.336 211.384 225.144V229.048C211.359 229.484 211.232 229.909 211.012 230.287C210.792 230.665 210.487 230.986 210.12 231.224L206.744 233.176C206.048 233.584 205.48 233.256 205.48 232.456V228.544C205.505 228.108 205.633 227.683 205.852 227.305C206.072 226.927 206.377 226.606 206.744 226.368V226.368Z" fill="white"/>
<path d="M201.456 239.64L215.416 231.584C215.848 231.328 216.216 231.504 216.216 231.976C216.196 232.241 216.112 232.498 215.973 232.724C215.834 232.951 215.643 233.141 215.416 233.28L201.456 241.344C201.016 241.592 200.656 241.416 200.656 240.944C200.675 240.678 200.758 240.421 200.897 240.195C201.037 239.968 201.228 239.777 201.456 239.64V239.64Z" fill="#E0E0E0"/>
<path d="M225.52 215.52L228.896 213.568C229.592 213.168 230.16 213.488 230.16 214.296V218.2C230.135 218.636 230.008 219.061 229.788 219.439C229.568 219.817 229.263 220.138 228.896 220.376L225.52 222.328C224.824 222.728 224.256 222.408 224.256 221.608V217.696C224.281 217.26 224.409 216.835 224.628 216.457C224.848 216.079 225.153 215.758 225.52 215.52V215.52Z" fill="white"/>
<path d="M220.224 228.792L234.184 220.728C234.624 220.48 234.984 220.656 234.984 221.128C234.965 221.394 234.882 221.65 234.743 221.877C234.604 222.104 234.412 222.294 234.184 222.432L220.224 230.496C219.792 230.744 219.424 230.568 219.424 230.096C219.445 229.831 219.528 229.574 219.667 229.348C219.806 229.121 219.997 228.931 220.224 228.792Z" fill="#E0E0E0"/>
<path d="M182.68 253.816L196.64 245.752C197.072 245.504 197.44 245.68 197.44 246.152C197.42 246.417 197.336 246.674 197.197 246.9C197.058 247.127 196.867 247.317 196.64 247.456L182.68 255.512C182.24 255.768 181.88 255.584 181.88 255.12C181.899 254.854 181.982 254.598 182.121 254.371C182.261 254.144 182.452 253.954 182.68 253.816V253.816Z" fill="#E0E0E0"/>
<path d="M201.456 243L215.416 234.944C215.848 234.696 216.216 234.872 216.216 235.344C216.196 235.609 216.112 235.866 215.973 236.092C215.834 236.319 215.643 236.509 215.416 236.648L201.456 244.704C201.016 244.96 200.656 244.776 200.656 244.312C200.677 244.046 200.76 243.788 200.899 243.56C201.038 243.332 201.229 243.14 201.456 243V243Z" fill="#E0E0E0"/>
<path d="M220.224 232.112L234.184 224.056C234.624 223.808 234.984 223.984 234.984 224.456C234.965 224.721 234.882 224.978 234.743 225.205C234.604 225.432 234.412 225.622 234.184 225.76L220.224 233.816C219.792 234.072 219.424 233.888 219.424 233.424C219.445 233.158 219.529 232.901 219.668 232.673C219.807 232.445 219.997 232.253 220.224 232.112V232.112Z" fill="#E0E0E0"/>
<path d="M182.68 257.136L196.64 249.08C197.072 248.832 197.44 249.008 197.44 249.48C197.418 249.745 197.334 250 197.195 250.227C197.056 250.453 196.866 250.644 196.64 250.784L182.68 258.84C182.24 259.088 181.88 258.912 181.88 258.44C181.902 258.175 181.986 257.919 182.125 257.693C182.264 257.466 182.454 257.276 182.68 257.136V257.136Z" fill="#E0E0E0"/>
<path d="M201.456 246.288L215.416 238.2C215.848 237.952 216.216 238.128 216.216 238.6C216.194 238.865 216.11 239.12 215.971 239.347C215.832 239.573 215.642 239.764 215.416 239.904L201.456 247.96C201.016 248.208 200.656 248.032 200.656 247.56C200.68 247.3 200.765 247.05 200.904 246.829C201.043 246.608 201.232 246.422 201.456 246.288V246.288Z" fill="#E0E0E0"/>
<path d="M220.224 235.44L234.184 227.384C234.624 227.128 234.984 227.312 234.984 227.776C234.963 228.042 234.88 228.3 234.741 228.528C234.602 228.756 234.411 228.948 234.184 229.088L220.224 237.144C219.792 237.392 219.424 237.216 219.424 236.744C219.445 236.479 219.528 236.222 219.667 235.996C219.806 235.769 219.997 235.579 220.224 235.44Z" fill="#E0E0E0"/>
<path d="M151.04 114.496C159.208 109.784 165.824 113.6 165.824 123.032C165.824 132.464 159.208 143.912 151.04 148.632C142.872 153.352 136.264 149.528 136.264 140.104C136.264 130.68 142.88 119.208 151.04 114.496Z" fill="#FAFAFA"/>
<path d="M151.04 121.912C153.688 120.384 155.84 121.624 155.84 124.68C155.749 126.344 155.267 127.963 154.433 129.406C153.599 130.849 152.437 132.075 151.04 132.984C148.392 134.512 146.24 133.272 146.24 130.216C146.33 128.552 146.812 126.932 147.646 125.49C148.48 124.047 149.643 122.821 151.04 121.912Z" fill="#E0E0E0"/>
<path d="M160.4 138.2C160.4 133.176 156.872 131.144 152.52 133.656L149.8 135.256C145.448 137.768 141.92 143.88 141.92 148.904V150.256C144.44 151.056 147.6 150.632 151.048 148.656C154.832 146.319 158.031 143.148 160.4 139.384V138.2Z" fill="#E0E0E0"/>
<path d="M142.296 172.904L162.744 161.096C163.608 160.592 164.344 160.952 164.344 161.896C164.303 162.426 164.136 162.939 163.858 163.393C163.58 163.846 163.198 164.227 162.744 164.504L142.296 176.312C141.424 176.816 140.696 176.456 140.696 175.512C140.736 174.981 140.902 174.468 141.18 174.014C141.459 173.561 141.841 173.18 142.296 172.904V172.904Z" fill="#F5F5F5"/>
<path d="M77.2561 344.344L103.248 231.768L245.544 149.616L219.552 262.184L77.2561 344.344Z" fill="#407BFF"/>
<path opacity="0.1" d="M148.744 303.064V205.504L245.168 150.104L219.552 262.184L148.744 303.064Z" fill="black"/>
<path d="M173.264 317.232L148.744 303.064L194.408 276.896L173.264 317.232Z" fill="#E0E0E0"/>
<path d="M173.264 317.232C172.827 316.935 172.466 316.539 172.21 316.076C171.954 315.613 171.811 315.096 171.792 314.568V141.12C171.826 140.573 171.989 140.041 172.267 139.569C172.545 139.096 172.93 138.696 173.392 138.4L282.28 75.512C282.735 75.2261 283.259 75.0699 283.797 75.0602C284.334 75.0504 284.864 75.1876 285.329 75.4568C285.794 75.7259 286.177 76.117 286.436 76.5877C286.695 77.0585 286.821 77.591 286.8 78.128V251.568C286.767 252.116 286.605 252.648 286.327 253.12C286.049 253.593 285.663 253.993 285.2 254.288L176.312 317.176C175.844 317.423 175.324 317.557 174.795 317.567C174.265 317.576 173.741 317.462 173.264 317.232V317.232Z" fill="#EBEBEB"/>
<path d="M174.736 144.416L218.976 115.472L216.024 113.768L173.36 138.4C172.898 138.696 172.513 139.096 172.235 139.569C171.957 140.041 171.794 140.573 171.76 141.12V142.72L174.736 144.416Z" fill="#455A64"/>
<path d="M189.48 149.52L172.248 139.576C171.967 140.043 171.81 140.575 171.792 141.12V314.568C171.772 315.104 171.899 315.636 172.159 316.105C172.419 316.575 172.802 316.965 173.267 317.233C173.732 317.501 174.261 317.638 174.797 317.628C175.334 317.618 175.858 317.461 176.312 317.176L189.48 309.568V149.52Z" fill="#263238"/>
<path d="M176.312 317.176L285.2 254.288C285.663 253.993 286.049 253.593 286.327 253.12C286.605 252.648 286.767 252.116 286.8 251.568V78.128C286.8 77.12 286.096 76.72 285.2 77.216L176.312 140.104C175.849 140.398 175.462 140.798 175.183 141.271C174.905 141.744 174.744 142.276 174.712 142.824V316.264C174.736 317.272 175.44 317.672 176.312 317.176Z" fill="#37474F"/>
<path d="M183.776 182.888L209.928 167.8C211.664 166.8 213.072 167.512 213.072 169.4C212.994 170.456 212.668 171.479 212.122 172.387C211.576 173.294 210.825 174.06 209.928 174.624L183.776 189.72C182.04 190.72 180.632 190.008 180.632 188.12C180.706 187.062 181.03 186.036 181.576 185.127C182.123 184.218 182.877 183.45 183.776 182.888V182.888Z" fill="#E0E0E0"/>
<path d="M181.896 210.488L185.28 208.536C185.968 208.136 186.536 208.464 186.536 209.264V213.168C186.511 213.605 186.385 214.03 186.167 214.409C185.949 214.788 185.645 215.111 185.28 215.352L181.896 217.304C181.2 217.704 180.64 217.376 180.64 216.576V212.672C180.662 212.235 180.788 211.809 181.006 211.429C181.224 211.05 181.529 210.727 181.896 210.488V210.488Z" fill="#407BFF"/>
<path d="M191.056 206.904L211.504 195.096C212.368 194.6 213.104 194.952 213.104 195.896C213.061 196.426 212.894 196.938 212.616 197.391C212.338 197.844 211.957 198.226 211.504 198.504L191.056 210.312C190.184 210.808 189.456 210.456 189.456 209.512C189.499 208.982 189.666 208.47 189.944 208.016C190.222 207.563 190.603 207.182 191.056 206.904Z" fill="#E0E0E0"/>
<path d="M181.896 224.112L185.28 222.2C185.968 221.8 186.536 222.12 186.536 222.928V226.832C186.511 227.268 186.385 227.691 186.167 228.069C185.948 228.447 185.645 228.769 185.28 229.008L181.896 230.96C181.2 231.36 180.64 231.04 180.64 230.24V226.328C180.657 225.885 180.779 225.453 180.998 225.067C181.217 224.681 181.525 224.354 181.896 224.112Z" fill="#407BFF"/>
<path d="M191.056 220.528L211.504 208.72C212.368 208.216 213.104 208.576 213.104 209.52C213.062 210.051 212.895 210.565 212.617 211.02C212.339 211.474 211.958 211.857 211.504 212.136L191.056 223.936C190.184 224.44 189.456 224.088 189.456 223.136C189.496 222.605 189.662 222.092 189.94 221.638C190.219 221.185 190.601 220.804 191.056 220.528V220.528Z" fill="#E0E0E0"/>
<path d="M181.896 237.736L185.28 235.8C185.968 235.4 186.536 235.728 186.536 236.528V240.432C186.512 240.869 186.387 241.294 186.168 241.674C185.95 242.053 185.646 242.376 185.28 242.616L181.896 244.568C181.2 244.968 180.64 244.64 180.64 243.84V239.936C180.659 239.496 180.783 239.067 181.002 238.684C181.22 238.301 181.527 237.976 181.896 237.736V237.736Z" fill="#407BFF"/>
<path d="M191.056 234.144L211.504 222.336C212.368 221.84 213.104 222.192 213.104 223.136C213.062 223.666 212.894 224.178 212.616 224.632C212.338 225.085 211.957 225.466 211.504 225.744L191.056 237.552C190.184 238.056 189.456 237.696 189.456 236.752C189.499 236.222 189.666 235.71 189.944 235.256C190.222 234.803 190.603 234.422 191.056 234.144V234.144Z" fill="#E0E0E0"/>
<path d="M181.896 251.392L185.28 249.4C185.968 249 186.536 249.328 186.536 250.128V254.04C186.511 254.476 186.385 254.899 186.167 255.277C185.948 255.655 185.645 255.977 185.28 256.216L181.896 258.2C181.2 258.6 180.64 258.272 180.64 257.472V253.568C180.663 253.132 180.789 252.707 181.007 252.329C181.225 251.951 181.53 251.63 181.896 251.392Z" fill="#407BFF"/>
<path d="M191.056 247.8L211.504 236C212.368 235.496 213.104 235.848 213.104 236.8C213.062 237.33 212.894 237.842 212.616 238.296C212.338 238.749 211.957 239.13 211.504 239.408L191.056 251.216C190.184 251.72 189.456 251.36 189.456 250.416C189.497 249.885 189.664 249.371 189.942 248.916C190.22 248.461 190.602 248.079 191.056 247.8Z" fill="#E0E0E0"/>
<path d="M182.208 279.864L196.76 271.464C197.624 270.968 198.36 271.32 198.36 272.264C198.317 272.794 198.15 273.306 197.872 273.759C197.594 274.212 197.213 274.593 196.76 274.872L182.208 283.272C181.344 283.776 180.608 283.416 180.608 282.472C180.651 281.942 180.818 281.43 181.096 280.977C181.374 280.524 181.755 280.142 182.208 279.864V279.864Z" fill="#E0E0E0"/>
<path d="M182.208 286.68L211.504 269.76C212.368 269.264 213.104 269.616 213.104 270.56C213.061 271.09 212.894 271.602 212.616 272.055C212.338 272.508 211.957 272.889 211.504 273.168L182.208 290.08C181.344 290.584 180.608 290.224 180.608 289.28C180.65 288.751 180.818 288.24 181.096 287.788C181.374 287.336 181.755 286.956 182.208 286.68V286.68Z" fill="#FAFAFA"/>
<path d="M182.208 286.68L202.656 274.872C203.528 274.368 204.256 274.728 204.256 275.672C204.215 276.203 204.048 276.717 203.77 277.172C203.492 277.627 203.11 278.009 202.656 278.288L182.208 290.088C181.344 290.592 180.608 290.232 180.608 289.288C180.649 288.758 180.816 288.245 181.094 287.791C181.372 287.338 181.754 286.957 182.208 286.68V286.68Z" fill="#407BFF"/>
<path d="M182.208 293.48L196.76 285.08C197.624 284.576 198.36 284.936 198.36 285.88C198.318 286.411 198.151 286.925 197.873 287.38C197.595 287.834 197.214 288.217 196.76 288.496L182.208 296.896C181.344 297.392 180.608 297.04 180.608 296.096C180.65 295.565 180.817 295.051 181.095 294.596C181.373 294.142 181.754 293.759 182.208 293.48V293.48Z" fill="#E0E0E0"/>
<path d="M182.208 266.256L196.76 257.856C197.624 257.352 198.36 257.712 198.36 258.656C198.319 259.186 198.152 259.699 197.874 260.153C197.596 260.606 197.214 260.987 196.76 261.264L182.208 269.664C181.344 270.168 180.608 269.816 180.608 268.864C180.649 268.334 180.816 267.821 181.094 267.367C181.372 266.914 181.754 266.533 182.208 266.256V266.256Z" fill="#E0E0E0"/>
<path d="M182.208 273.064L211.504 256.152C212.368 255.648 213.104 256.008 213.104 256.952C213.063 257.482 212.896 257.995 212.618 258.449C212.34 258.902 211.958 259.283 211.504 259.56L182.208 276.48C181.344 276.976 180.608 276.624 180.608 275.68C180.65 275.149 180.817 274.635 181.095 274.18C181.373 273.726 181.754 273.343 182.208 273.064V273.064Z" fill="#FAFAFA"/>
<path d="M182.208 273.064L192.608 267.064C193.472 266.568 194.208 266.92 194.208 267.864C194.165 268.394 193.998 268.906 193.72 269.359C193.442 269.812 193.061 270.194 192.608 270.472L182.208 276.472C181.344 276.968 180.608 276.616 180.608 275.672C180.651 275.142 180.818 274.63 181.096 274.177C181.374 273.724 181.755 273.342 182.208 273.064V273.064Z" fill="#407BFF"/>
<path d="M182.208 300.288L211.504 283.376C212.368 282.872 213.104 283.232 213.104 284.176C213.061 284.706 212.894 285.218 212.616 285.671C212.338 286.124 211.957 286.506 211.504 286.784L182.208 303.696C181.344 304.2 180.608 303.84 180.608 302.896C180.651 302.366 180.818 301.854 181.096 301.401C181.374 300.948 181.755 300.566 182.208 300.288V300.288Z" fill="#FAFAFA"/>
<path d="M182.208 300.288L208.552 285.088C209.424 284.584 210.152 284.944 210.152 285.888C210.111 286.419 209.944 286.933 209.666 287.388C209.388 287.843 209.006 288.225 208.552 288.504L182.208 303.704C181.344 304.208 180.608 303.848 180.608 302.904C180.65 302.373 180.817 301.859 181.095 301.404C181.373 300.95 181.754 300.567 182.208 300.288V300.288Z" fill="#407BFF"/>
<path d="M285.2 77.216L218.952 115.472V292.544L285.2 254.288C285.663 253.993 286.049 253.593 286.327 253.12C286.605 252.648 286.767 252.116 286.8 251.568V78.128C286.8 77.12 286.096 76.72 285.2 77.216Z" fill="#FAFAFA"/>
<path d="M218.976 122.28V135.904L213.072 142.712H218.968L218.976 156.336L280.904 120.576V86.528L218.976 122.28Z" fill="#407BFF"/>
<path d="M227.072 122.752L252.16 108.272C253.376 107.568 254.36 108.136 254.36 109.544C254.327 110.315 254.11 111.068 253.727 111.739C253.345 112.409 252.807 112.979 252.16 113.4L227.072 127.888C225.856 128.592 224.872 128.024 224.872 126.616C224.905 125.843 225.122 125.09 225.505 124.418C225.887 123.746 226.425 123.175 227.072 122.752V122.752Z" fill="#FAFAFA"/>
<path d="M225.656 133.744L274.216 105.744C274.656 105.488 275.016 105.672 275.016 106.136C274.996 106.402 274.913 106.66 274.774 106.888C274.635 107.116 274.444 107.308 274.216 107.448L225.656 135.448C225.224 135.696 224.856 135.52 224.856 135.048C224.878 134.783 224.962 134.528 225.101 134.301C225.24 134.075 225.43 133.884 225.656 133.744V133.744Z" fill="#FAFAFA"/>
<path d="M225.656 138.856L274.216 110.856C274.656 110.608 275.016 110.784 275.016 111.256C274.997 111.522 274.915 111.779 274.776 112.006C274.636 112.233 274.444 112.423 274.216 112.56L225.656 140.56C225.224 140.808 224.856 140.632 224.856 140.16C224.877 139.895 224.96 139.638 225.099 139.412C225.238 139.185 225.429 138.995 225.656 138.856V138.856Z" fill="#FAFAFA"/>
<path d="M225.656 143.96L274.216 115.96C274.656 115.704 275.016 115.888 275.016 116.352C274.997 116.618 274.915 116.875 274.776 117.102C274.636 117.329 274.444 117.519 274.216 117.656L225.656 145.696C225.224 145.944 224.856 145.768 224.856 145.296C224.874 145.026 224.955 144.764 225.094 144.531C225.234 144.299 225.426 144.103 225.656 143.96Z" fill="#FAFAFA"/>
<path d="M227.488 158.248L230.872 156.288C231.56 155.888 232.128 156.216 232.128 157.016V160.92C232.105 161.357 231.979 161.782 231.76 162.162C231.542 162.541 231.238 162.864 230.872 163.104L227.488 165.056C226.792 165.456 226.232 165.128 226.232 164.328V160.424C226.255 159.988 226.381 159.563 226.599 159.185C226.817 158.807 227.122 158.486 227.488 158.248V158.248Z" fill="#407BFF"/>
<path d="M236.648 154.656L257.096 142.848C257.968 142.352 258.696 142.704 258.696 143.648C258.655 144.178 258.488 144.691 258.21 145.145C257.932 145.598 257.55 145.979 257.096 146.256L236.648 158.064C235.776 158.56 235.048 158.208 235.048 157.264C235.09 156.734 235.258 156.222 235.536 155.768C235.814 155.315 236.195 154.934 236.648 154.656V154.656Z" fill="#455A64"/>
<path d="M227.016 170.44L278.528 140.696C278.96 140.448 279.328 140.624 279.328 141.096C279.307 141.361 279.224 141.618 279.085 141.844C278.946 142.071 278.755 142.261 278.528 142.4L227.016 172.144C226.584 172.392 226.216 172.216 226.216 171.744C226.239 171.479 226.323 171.224 226.461 170.997C226.6 170.771 226.79 170.58 227.016 170.44Z" fill="#455A64"/>
<path d="M227.016 175.552L278.528 145.808C278.96 145.552 279.328 145.728 279.328 146.2C279.307 146.465 279.224 146.722 279.085 146.948C278.946 147.175 278.755 147.365 278.528 147.504L227.016 177.248C226.584 177.504 226.216 177.328 226.216 176.856C226.237 176.591 226.32 176.334 226.459 176.108C226.598 175.881 226.789 175.691 227.016 175.552V175.552Z" fill="#455A64"/>
<path d="M227.016 180.656L278.528 150.912C278.96 150.664 279.328 150.84 279.328 151.312C279.306 151.577 279.222 151.832 279.083 152.059C278.944 152.285 278.754 152.476 278.528 152.616L227.016 182.36C226.584 182.608 226.216 182.432 226.216 181.96C226.237 181.695 226.32 181.438 226.459 181.212C226.598 180.985 226.789 180.795 227.016 180.656V180.656Z" fill="#455A64"/>
<path d="M227.016 185.776L278.528 156.032C278.96 155.784 279.328 155.96 279.328 156.432C279.307 156.697 279.224 156.954 279.085 157.18C278.946 157.407 278.755 157.597 278.528 157.736L227.016 187.48C226.584 187.736 226.216 187.552 226.216 187.088C226.237 186.822 226.321 186.565 226.46 186.337C226.599 186.109 226.789 185.917 227.016 185.776V185.776Z" fill="#455A64"/>
<path d="M227.488 195.704L230.872 193.752C231.56 193.352 232.128 193.672 232.128 194.472V198.384C232.103 198.82 231.977 199.243 231.759 199.621C231.541 199.999 231.237 200.321 230.872 200.56L227.488 202.512C226.792 202.912 226.232 202.592 226.232 201.784V197.88C226.255 197.444 226.381 197.019 226.599 196.641C226.817 196.263 227.122 195.942 227.488 195.704V195.704Z" fill="#407BFF"/>
<path d="M236.648 192.112L257.096 180.312C257.968 179.808 258.696 180.168 258.696 181.112C258.657 181.643 258.491 182.157 258.213 182.61C257.934 183.064 257.551 183.444 257.096 183.72L236.648 195.528C235.776 196.032 235.048 195.672 235.048 194.728C235.089 194.197 235.256 193.683 235.534 193.228C235.812 192.773 236.194 192.391 236.648 192.112V192.112Z" fill="#455A64"/>
<path d="M227.016 207.896L278.528 178.152C278.96 177.904 279.328 178.08 279.328 178.552C279.307 178.817 279.224 179.074 279.085 179.3C278.946 179.527 278.755 179.717 278.528 179.856L227.016 209.6C226.584 209.856 226.216 209.672 226.216 209.208C226.237 208.942 226.321 208.685 226.46 208.457C226.599 208.229 226.789 208.037 227.016 207.896Z" fill="#455A64"/>
<path d="M227.016 213.008L278.528 183.264C278.96 183.008 279.328 183.192 279.328 183.656C279.307 183.922 279.223 184.179 279.084 184.407C278.945 184.635 278.755 184.827 278.528 184.968L227.016 214.712C226.584 214.96 226.216 214.784 226.216 214.312C226.237 214.047 226.32 213.79 226.459 213.564C226.598 213.337 226.789 213.147 227.016 213.008V213.008Z" fill="#455A64"/>
<path d="M227.016 218.112L278.528 188.368C278.96 188.12 279.328 188.296 279.328 188.768C279.307 189.033 279.224 189.29 279.085 189.516C278.946 189.743 278.755 189.933 278.528 190.072L227.016 219.8C226.584 220.056 226.216 219.872 226.216 219.4C226.241 219.138 226.326 218.886 226.465 218.662C226.604 218.439 226.792 218.25 227.016 218.112Z" fill="#455A64"/>
<path d="M227.016 223.24L278.528 193.496C278.96 193.24 279.328 193.416 279.328 193.888C279.307 194.153 279.224 194.41 279.085 194.636C278.946 194.863 278.755 195.053 278.528 195.192L227.016 224.936C226.584 225.192 226.216 225.016 226.216 224.544C226.237 224.279 226.32 224.022 226.459 223.796C226.598 223.569 226.789 223.379 227.016 223.24V223.24Z" fill="#455A64"/>
<path d="M232.304 230.704L235.688 228.752C236.384 228.352 236.944 228.68 236.944 229.48V233.4C236.921 233.836 236.795 234.261 236.577 234.639C236.359 235.017 236.054 235.338 235.688 235.576L232.304 237.536C231.608 237.936 231.048 237.608 231.048 236.808V232.896C231.068 232.457 231.193 232.029 231.411 231.648C231.63 231.267 231.936 230.943 232.304 230.704Z" fill="#407BFF"/>
<path d="M227.016 243.976L240.976 235.92C241.408 235.664 241.776 235.848 241.776 236.312C241.755 236.577 241.672 236.834 241.533 237.06C241.394 237.287 241.203 237.477 240.976 237.616L227.016 245.68C226.584 245.928 226.216 245.752 226.216 245.28C226.237 245.015 226.32 244.758 226.459 244.532C226.598 244.305 226.789 244.115 227.016 243.976Z" fill="#455A64"/>
<path d="M251.08 219.856L254.464 217.904C255.16 217.504 255.72 217.824 255.72 218.632V222.536C255.697 222.972 255.571 223.397 255.353 223.775C255.135 224.153 254.83 224.474 254.464 224.712L251.08 226.664C250.384 227.072 249.824 226.744 249.824 225.944V222.032C249.847 221.596 249.973 221.171 250.191 220.793C250.409 220.415 250.714 220.094 251.08 219.856V219.856Z" fill="#407BFF"/>
<path d="M245.792 233.128L259.752 225.072C260.184 224.816 260.552 225 260.552 225.464C260.531 225.729 260.448 225.986 260.309 226.212C260.17 226.439 259.979 226.629 259.752 226.768L245.792 234.832C245.36 235.08 244.992 234.904 244.992 234.432C245.013 234.167 245.096 233.91 245.235 233.684C245.374 233.457 245.565 233.267 245.792 233.128Z" fill="#455A64"/>
<path d="M269.856 209.008L273.24 207.056C273.936 206.656 274.496 206.976 274.496 207.784V211.688C274.473 212.124 274.347 212.549 274.129 212.927C273.911 213.305 273.606 213.626 273.24 213.864L269.856 215.8C269.16 216.2 268.6 215.88 268.6 215.08V211.168C268.625 210.735 268.752 210.313 268.97 209.938C269.189 209.563 269.492 209.244 269.856 209.008V209.008Z" fill="#407BFF"/>
<path d="M264.568 222.28L278.528 214.2C278.96 213.944 279.328 214.12 279.328 214.592C279.307 214.857 279.224 215.114 279.085 215.34C278.946 215.567 278.755 215.757 278.528 215.896L264.568 223.96C264.136 224.208 263.768 224.032 263.768 223.56C263.792 223.299 263.877 223.047 264.016 222.825C264.155 222.603 264.344 222.416 264.568 222.28V222.28Z" fill="#455A64"/>
<path d="M227.016 247.304L240.976 239.24C241.408 238.992 241.776 239.168 241.776 239.64C241.755 239.905 241.672 240.162 241.533 240.388C241.394 240.615 241.203 240.805 240.976 240.944L227.016 249C226.584 249.256 226.216 249.08 226.216 248.608C226.237 248.343 226.32 248.086 226.459 247.86C226.598 247.633 226.789 247.443 227.016 247.304Z" fill="#455A64"/>
<path d="M245.792 236.456L259.752 228.392C260.184 228.144 260.552 228.32 260.552 228.792C260.531 229.057 260.448 229.314 260.309 229.54C260.17 229.767 259.979 229.957 259.752 230.096L245.792 238.152C245.36 238.408 244.992 238.224 244.992 237.76C245.013 237.495 245.096 237.238 245.235 237.012C245.374 236.785 245.565 236.595 245.792 236.456Z" fill="#455A64"/>
<path d="M264.568 225.6L278.528 217.544C278.96 217.296 279.328 217.472 279.328 217.944C279.307 218.209 279.224 218.466 279.085 218.692C278.946 218.919 278.755 219.109 278.528 219.248L264.568 227.304C264.136 227.56 263.768 227.376 263.768 226.912C263.789 226.646 263.873 226.389 264.012 226.161C264.151 225.933 264.341 225.741 264.568 225.6V225.6Z" fill="#455A64"/>
<path d="M227.016 250.624L240.976 242.568C241.408 242.32 241.776 242.496 241.776 242.968C241.754 243.233 241.67 243.488 241.531 243.715C241.392 243.941 241.202 244.132 240.976 244.272L227.016 252.328C226.584 252.576 226.216 252.4 226.216 251.928C226.239 251.663 226.323 251.408 226.461 251.181C226.6 250.955 226.79 250.764 227.016 250.624V250.624Z" fill="#455A64"/>
<path d="M245.792 239.8L259.752 231.744C260.184 231.496 260.552 231.672 260.552 232.144C260.53 232.409 260.446 232.664 260.307 232.891C260.168 233.117 259.978 233.308 259.752 233.448L245.792 241.48C245.36 241.728 244.992 241.552 244.992 241.08C245.018 240.819 245.103 240.568 245.242 240.346C245.381 240.124 245.569 239.937 245.792 239.8V239.8Z" fill="#455A64"/>
<path d="M264.568 228.928L278.528 220.872C278.96 220.616 279.328 220.8 279.328 221.264C279.307 221.53 279.223 221.787 279.084 222.015C278.945 222.243 278.755 222.435 278.528 222.576L264.568 230.632C264.136 230.88 263.768 230.704 263.768 230.232C263.789 229.967 263.872 229.71 264.011 229.484C264.15 229.257 264.341 229.067 264.568 228.928Z" fill="#455A64"/>
<path d="M232.304 258.672L235.688 256.712C236.384 256.312 236.944 256.64 236.944 257.44V261.352C236.921 261.788 236.795 262.213 236.577 262.591C236.359 262.969 236.054 263.29 235.688 263.528L232.304 265.48C231.608 265.88 231.048 265.552 231.048 264.752V260.848C231.071 260.412 231.197 259.987 231.415 259.609C231.633 259.231 231.938 258.91 232.304 258.672Z" fill="#407BFF"/>
<path d="M227.016 271.936L240.976 263.88C241.408 263.632 241.776 263.808 241.776 264.28C241.755 264.545 241.672 264.802 241.533 265.028C241.394 265.255 241.203 265.446 240.976 265.584L227.016 273.64C226.584 273.896 226.216 273.712 226.216 273.248C226.237 272.982 226.321 272.725 226.46 272.497C226.599 272.269 226.789 272.077 227.016 271.936Z" fill="#455A64"/>
<path d="M251.08 247.8L254.464 245.84C255.16 245.44 255.72 245.768 255.72 246.568V250.472C255.698 250.909 255.572 251.335 255.354 251.715C255.136 252.094 254.831 252.417 254.464 252.656L251.08 254.608C250.384 255.008 249.824 254.68 249.824 253.88V249.976C249.847 249.54 249.973 249.115 250.191 248.737C250.409 248.359 250.714 248.038 251.08 247.8Z" fill="#407BFF"/>
<path d="M245.792 261.088L259.752 253.032C260.184 252.784 260.552 252.96 260.552 253.432C260.53 253.697 260.446 253.953 260.307 254.179C260.168 254.406 259.978 254.597 259.752 254.736L245.792 262.792C245.36 263.04 244.992 262.864 244.992 262.392C245.015 262.127 245.099 261.872 245.237 261.645C245.376 261.419 245.566 261.228 245.792 261.088Z" fill="#455A64"/>
<path d="M269.856 236.968L273.24 235.016C273.936 234.616 274.496 234.944 274.496 235.744V239.648C274.473 240.085 274.347 240.511 274.129 240.89C273.911 241.27 273.606 241.592 273.24 241.832L269.856 243.8C269.16 244.2 268.6 243.872 268.6 243.072V239.168C268.62 238.728 268.745 238.299 268.963 237.917C269.182 237.534 269.488 237.209 269.856 236.968V236.968Z" fill="#407BFF"/>
<path d="M264.568 250.24L278.528 242.2C278.96 241.952 279.328 242.128 279.328 242.6C279.305 242.865 279.221 243.12 279.083 243.347C278.944 243.573 278.754 243.764 278.528 243.904L264.568 251.96C264.136 252.208 263.768 252.032 263.768 251.56C263.788 251.293 263.871 251.034 264.01 250.804C264.149 250.575 264.34 250.382 264.568 250.24V250.24Z" fill="#455A64"/>
<path d="M227.016 275.264L240.976 267.208C241.408 266.952 241.776 267.136 241.776 267.6C241.755 267.866 241.671 268.123 241.532 268.351C241.393 268.579 241.203 268.771 240.976 268.912L227.016 276.968C226.584 277.216 226.216 277.04 226.216 276.568C226.237 276.303 226.32 276.046 226.459 275.82C226.598 275.593 226.789 275.403 227.016 275.264Z" fill="#455A64"/>
<path d="M245.792 264.416L259.752 256.36C260.184 256.104 260.552 256.288 260.552 256.752C260.531 257.017 260.448 257.274 260.309 257.5C260.17 257.727 259.979 257.918 259.752 258.056L245.792 266.12C245.36 266.368 244.992 266.192 244.992 265.72C245.013 265.455 245.096 265.198 245.235 264.972C245.374 264.745 245.565 264.555 245.792 264.416Z" fill="#455A64"/>
<path d="M264.568 253.568L278.528 245.512C278.96 245.256 279.328 245.44 279.328 245.904C279.307 246.169 279.224 246.426 279.085 246.652C278.946 246.879 278.755 247.07 278.528 247.208L264.568 255.272C264.136 255.52 263.768 255.344 263.768 254.872C263.789 254.607 263.872 254.35 264.011 254.124C264.15 253.897 264.341 253.707 264.568 253.568Z" fill="#455A64"/>
<path d="M227.016 278.592L240.976 270.528C241.408 270.28 241.776 270.456 241.776 270.928C241.755 271.193 241.672 271.45 241.533 271.676C241.394 271.903 241.203 272.093 240.976 272.232L227.016 280.296C226.584 280.544 226.216 280.368 226.216 279.896C226.237 279.631 226.32 279.374 226.459 279.148C226.598 278.921 226.789 278.731 227.016 278.592Z" fill="#455A64"/>
<path d="M245.792 267.744L259.752 259.68C260.184 259.432 260.552 259.608 260.552 260.08C260.531 260.345 260.448 260.602 260.309 260.828C260.17 261.055 259.979 261.245 259.752 261.384L245.792 269.44C245.36 269.696 244.992 269.52 244.992 269.048C245.013 268.783 245.096 268.526 245.235 268.3C245.374 268.073 245.565 267.883 245.792 267.744Z" fill="#455A64"/>
<path d="M264.568 256.896L278.528 248.832C278.96 248.584 279.328 248.76 279.328 249.232C279.307 249.497 279.224 249.754 279.085 249.98C278.946 250.207 278.755 250.398 278.528 250.536L264.568 258.592C264.136 258.848 263.768 258.664 263.768 258.2C263.789 257.935 263.872 257.678 264.011 257.452C264.15 257.225 264.341 257.035 264.568 256.896V256.896Z" fill="#455A64"/>
<path d="M195.384 135.944C203.544 131.232 210.16 135.056 210.16 144.48C210.16 153.904 203.544 165.368 195.384 170.08C187.224 174.792 180.6 170.968 180.6 161.544C180.6 152.12 187.216 140.656 195.384 135.944Z" fill="#E0E0E0"/>
<path d="M195.384 143.368C198.032 141.832 200.184 143.072 200.184 146.136C200.094 147.8 199.612 149.42 198.778 150.862C197.944 152.305 196.781 153.531 195.384 154.44C192.736 155.968 190.584 154.728 190.584 151.672C190.674 150.008 191.156 148.388 191.99 146.946C192.824 145.503 193.987 144.277 195.384 143.368Z" fill="#FAFAFA"/>
<path d="M204.728 159.672C204.728 154.648 201.2 152.608 196.848 155.12L194.128 156.72C189.776 159.232 186.256 165.344 186.256 170.368V171.72C188.768 172.52 191.936 172.104 195.384 170.12C199.164 167.791 202.36 164.628 204.728 160.872V159.672Z" fill="#FAFAFA"/>
<path d="M186.632 194.352L207.08 182.544C207.944 182.048 208.68 182.4 208.68 183.344C208.637 183.874 208.47 184.386 208.192 184.839C207.914 185.292 207.533 185.673 207.08 185.952L186.632 197.76C185.76 198.256 185.032 197.904 185.032 196.96C185.074 196.43 185.242 195.918 185.52 195.464C185.798 195.011 186.179 194.63 186.632 194.352V194.352Z" fill="#E0E0E0"/>
</svg>
