<svg width="480" height="760" viewBox="0 0 480 760" fill="none" xmlns="http://www.w3.org/2000/svg">
<rect width="480" height="520" fill="#E6EEFA"/>
<circle cx="240" cy="520" r="240" fill="#E6EEFA"/>
<path d="M209.923 360H203.824V360.946H209.923V360Z" fill="#407BFF"/>
<path d="M288.876 397.432L288.138 413.19L289.12 413.233L289.858 397.474L288.876 397.432Z" fill="#407BFF"/>
<path d="M286.978 364.242H174.35L163.87 589.861H276.498L286.978 364.242Z" fill="#407BFF"/>
<path opacity="0.56" d="M283.618 367.345H170.99L160.51 592.964H273.138L283.618 367.345Z" fill="#FAFAFA"/>
<path opacity="0.07" d="M280.258 370.44H167.63L157.141 596.059H269.769L280.258 370.44Z" fill="#407BFF"/>
<path d="M267.439 468.843H171.305L170.503 486.105H266.638L267.439 468.843Z" fill="white"/>
<path d="M224.173 456.245H171.887L171.534 463.967H223.82L224.173 456.245Z" fill="#407BFF"/>
<path d="M265.273 515.432H169.138L168.336 532.694H264.471L265.273 515.432Z" fill="white"/>
<path opacity="0.47" d="M247.644 556.007H182.997L182.033 576.694H246.68L247.644 556.007Z" fill="#407BFF"/>
<path d="M243.32 579.908H178.674C178.645 579.915 178.616 579.915 178.588 579.908C178.578 579.881 178.578 579.852 178.588 579.825L179.542 559.129C179.542 559.115 179.545 559.101 179.551 559.088C179.557 559.075 179.565 559.063 179.576 559.054C179.587 559.044 179.6 559.037 179.614 559.033C179.627 559.028 179.642 559.027 179.657 559.028H244.303C244.315 559.022 244.328 559.019 244.341 559.019C244.355 559.019 244.368 559.022 244.38 559.028C244.386 559.039 244.39 559.052 244.39 559.065C244.39 559.077 244.386 559.09 244.38 559.101L243.444 579.843C243.433 579.865 243.415 579.883 243.393 579.894C243.37 579.905 243.345 579.91 243.32 579.908ZM178.788 579.687H243.206L244.16 559.211H179.743L178.788 579.687Z" fill="white"/>
<path d="M212.882 502.834H169.721L169.368 510.566H212.52L212.882 502.834Z" fill="#407BFF"/>
<path d="M246.412 413.081C246.166 418.105 244.309 422.932 241.096 426.9C238.718 429.897 235.658 432.33 232.15 434.012C228.642 435.695 224.781 436.582 220.861 436.605C217.694 436.628 214.555 436.027 211.638 434.839C208.722 433.652 206.089 431.902 203.902 429.698C201.714 427.494 200.019 424.883 198.921 422.025C197.822 419.167 197.344 416.123 197.515 413.081C197.85 406.767 200.681 400.816 205.427 396.443C210.172 392.07 216.476 389.607 223.047 389.557C226.217 389.528 229.359 390.125 232.279 391.311C235.199 392.497 237.836 394.246 240.025 396.451C242.215 398.656 243.912 401.269 245.01 404.129C246.109 406.989 246.586 410.036 246.412 413.081Z" fill="white"/>
<path d="M248.713 394.478C248.651 395.814 248.157 397.098 247.3 398.151C246.666 398.947 245.852 399.593 244.919 400.04C243.986 400.488 242.959 400.724 241.917 400.731C240.907 400.737 239.911 400.505 239.016 400.055C238.121 399.605 237.354 398.952 236.782 398.151C236.025 397.069 235.65 395.781 235.713 394.478C235.805 392.802 236.559 391.223 237.82 390.062C239.081 388.902 240.754 388.248 242.499 388.234C243.341 388.227 244.175 388.386 244.951 388.7C245.727 389.015 246.427 389.479 247.009 390.064C247.592 390.649 248.043 391.342 248.336 392.101C248.629 392.861 248.757 393.669 248.713 394.478Z" fill="#407BFF"/>
<path d="M181.661 477.474C181.615 478.214 181.279 478.909 180.721 479.421C180.163 479.932 179.424 480.22 178.654 480.228C178.282 480.233 177.913 480.163 177.57 480.025C177.227 479.887 176.917 479.682 176.659 479.424C176.402 479.166 176.202 478.859 176.072 478.524C175.942 478.189 175.886 477.831 175.905 477.474C175.947 476.732 176.281 476.034 176.84 475.522C177.399 475.01 178.14 474.723 178.912 474.719C179.283 474.716 179.652 474.786 179.994 474.925C180.337 475.064 180.646 475.269 180.903 475.527C181.161 475.784 181.361 476.09 181.491 476.425C181.621 476.76 181.679 477.117 181.661 477.474Z" fill="#263238"/>
<path d="M194.528 477.474C194.484 478.214 194.149 478.911 193.59 479.423C193.032 479.935 192.292 480.223 191.521 480.228C191.15 480.231 190.782 480.161 190.44 480.022C190.098 479.883 189.789 479.679 189.532 479.421C189.276 479.163 189.077 478.857 188.948 478.522C188.819 478.187 188.762 477.83 188.782 477.474C188.823 476.734 189.156 476.037 189.713 475.525C190.27 475.013 191.008 474.725 191.779 474.719C192.151 474.715 192.52 474.784 192.863 474.922C193.206 475.061 193.516 475.265 193.773 475.524C194.031 475.782 194.231 476.088 194.361 476.423C194.49 476.759 194.547 477.116 194.528 477.474Z" fill="#263238"/>
<path d="M207.403 477.474C207.359 478.214 207.024 478.911 206.466 479.423C205.907 479.935 205.167 480.223 204.396 480.228C204.025 480.231 203.656 480.161 203.314 480.022C202.971 479.884 202.662 479.679 202.405 479.421C202.147 479.163 201.947 478.857 201.817 478.523C201.687 478.188 201.629 477.831 201.647 477.474C201.691 476.733 202.026 476.036 202.584 475.525C203.143 475.013 203.883 474.725 204.654 474.719C205.026 474.715 205.395 474.784 205.738 474.922C206.081 475.061 206.391 475.265 206.649 475.524C206.906 475.782 207.106 476.088 207.236 476.423C207.366 476.759 207.422 477.116 207.403 477.474Z" fill="#263238"/>
<path d="M179.495 524.063C179.449 524.803 179.113 525.499 178.555 526.01C177.997 526.521 177.258 526.81 176.488 526.818C176.116 526.82 175.748 526.75 175.406 526.612C175.063 526.473 174.754 526.268 174.496 526.01C174.239 525.752 174.039 525.447 173.909 525.112C173.779 524.777 173.721 524.42 173.739 524.063C173.783 523.322 174.118 522.625 174.676 522.114C175.235 521.602 175.975 521.314 176.746 521.308C177.117 521.305 177.486 521.376 177.828 521.514C178.171 521.653 178.48 521.858 178.737 522.116C178.995 522.374 179.195 522.679 179.325 523.014C179.455 523.349 179.513 523.706 179.495 524.063Z" fill="#263238"/>
<path d="M192.361 524.063C192.318 524.802 191.984 525.498 191.427 526.009C190.871 526.52 190.133 526.809 189.364 526.818C188.992 526.822 188.623 526.753 188.28 526.614C187.937 526.476 187.627 526.271 187.369 526.013C187.112 525.755 186.912 525.449 186.782 525.113C186.652 524.778 186.596 524.42 186.615 524.063C186.659 523.322 186.994 522.625 187.552 522.114C188.111 521.602 188.851 521.314 189.622 521.308C189.993 521.305 190.361 521.376 190.703 521.514C191.045 521.653 191.354 521.858 191.61 522.116C191.867 522.374 192.066 522.68 192.195 523.015C192.324 523.35 192.381 523.706 192.361 524.063Z" fill="#263238"/>
<path d="M205.265 524.063C205.221 524.804 204.886 525.501 204.328 526.012C203.769 526.524 203.029 526.812 202.258 526.818C201.887 526.819 201.519 526.748 201.177 526.609C200.835 526.47 200.527 526.265 200.27 526.007C200.012 525.75 199.813 525.445 199.682 525.11C199.551 524.776 199.492 524.42 199.509 524.063C199.555 523.323 199.891 522.627 200.449 522.116C201.007 521.605 201.745 521.316 202.516 521.308C202.888 521.304 203.257 521.373 203.6 521.512C203.943 521.65 204.253 521.855 204.511 522.113C204.768 522.371 204.968 522.677 205.098 523.013C205.227 523.348 205.284 523.706 205.265 524.063Z" fill="#263238"/>
<path d="M218.112 524.063C218.066 524.803 217.731 525.499 217.173 526.01C216.615 526.521 215.876 526.81 215.106 526.818C214.734 526.819 214.367 526.748 214.025 526.609C213.683 526.47 213.374 526.265 213.117 526.007C212.86 525.75 212.66 525.445 212.529 525.11C212.399 524.776 212.34 524.42 212.357 524.063C212.403 523.323 212.738 522.627 213.296 522.116C213.854 521.605 214.593 521.316 215.363 521.308C215.735 521.305 216.103 521.376 216.446 521.514C216.788 521.653 217.098 521.858 217.355 522.116C217.612 522.374 217.812 522.679 217.943 523.014C218.073 523.349 218.131 523.706 218.112 524.063Z" fill="#263238"/>
<path d="M231.036 524.063C230.99 524.803 230.654 525.499 230.096 526.01C229.538 526.521 228.799 526.81 228.029 526.818C227.657 526.822 227.288 526.753 226.945 526.614C226.602 526.476 226.292 526.271 226.034 526.013C225.777 525.755 225.577 525.449 225.447 525.113C225.317 524.778 225.261 524.42 225.28 524.063C225.324 523.322 225.659 522.625 226.217 522.114C226.776 521.602 227.516 521.314 228.287 521.308C228.658 521.305 229.027 521.376 229.369 521.514C229.712 521.653 230.021 521.858 230.278 522.116C230.536 522.374 230.736 522.679 230.866 523.014C230.996 523.349 231.054 523.706 231.036 524.063Z" fill="#263238"/>
<path d="M229.082 411.856C233.077 408.097 233.289 402.073 229.556 398.401C225.822 394.728 219.557 394.797 215.562 398.555C211.567 402.314 211.355 408.338 215.089 412.01C218.822 415.683 225.087 415.614 229.082 411.856Z" fill="#407BFF"/>
<path d="M241.096 426.9C238.718 429.897 235.657 432.33 232.15 434.012C228.642 435.695 224.78 436.582 220.861 436.605C217.06 436.636 213.31 435.767 209.941 434.074C206.572 432.382 203.688 429.918 201.542 426.9C206.181 422.456 213.521 419.554 221.653 419.554C229.785 419.554 236.868 422.456 241.096 426.9Z" fill="#407BFF"/>
<path opacity="0.1" d="M229.082 411.856C233.077 408.097 233.289 402.073 229.556 398.401C225.822 394.728 219.557 394.797 215.562 398.555C211.567 402.314 211.355 408.338 215.089 412.01C218.822 415.683 225.087 415.614 229.082 411.856Z" fill="white"/>
<path opacity="0.1" d="M241.096 426.9C238.718 429.897 235.657 432.33 232.15 434.012C228.642 435.695 224.78 436.582 220.861 436.605C217.06 436.636 213.31 435.767 209.941 434.074C206.572 432.382 203.688 429.918 201.542 426.9C206.181 422.456 213.521 419.554 221.653 419.554C229.785 419.554 236.868 422.456 241.096 426.9Z" fill="white"/>
<path d="M100.664 490.264C99.7576 492.174 98.8031 494.277 97.9727 496.315C97.1423 498.354 96.2928 500.456 95.5579 502.55C94.0573 506.675 92.9144 510.914 92.1409 515.221L91.9309 516.571C91.9109 516.802 91.9335 517.035 91.9977 517.259C92.223 518.02 92.5777 518.74 93.0476 519.389C94.2734 521.07 95.6953 522.611 97.2855 523.98C98.9621 525.481 100.721 526.894 102.554 528.213C104.387 529.572 106.315 530.894 108.214 532.143L106.429 535.366C101.894 533.465 97.5889 531.091 93.5917 528.287C91.4591 526.791 89.5345 525.038 87.8648 523.071C86.8751 521.901 86.1033 520.574 85.5836 519.151C85.2815 518.261 85.1269 517.332 85.1255 516.396C85.1255 516.176 85.1255 515.854 85.1255 515.698V515.248L85.2209 514.33C85.7681 509.546 86.8138 504.828 88.3421 500.245C89.0866 497.986 89.8788 495.737 90.7855 493.542C91.6923 491.348 92.6277 489.199 93.7826 486.968L100.664 490.264Z" fill="#E58A7B"/>
<path d="M106.868 531.574L113.616 528.287L111.87 535.412C111.87 535.412 107.24 536.661 105.093 534.494L106.868 531.574Z" fill="#E58A7B"/>
<path d="M119.792 529.453L117.997 535.348L111.87 535.412L113.616 528.287L119.792 529.453Z" fill="#E58A7B"/>
<path d="M129.318 455.887C129.679 457.16 130.181 458.391 130.816 459.56C130.631 459.762 130.392 459.913 130.125 459.995C129.858 460.078 129.572 460.089 129.299 460.028L129.318 455.887Z" fill="#DF5753"/>
<path d="M129.117 455.942C129.513 455.942 129.833 455.469 129.833 454.886C129.833 454.303 129.513 453.83 129.117 453.83C128.722 453.83 128.401 454.303 128.401 454.886C128.401 455.469 128.722 455.942 129.117 455.942Z" fill="#263238"/>
<path d="M128.907 453.867L130.358 453.472C130.358 453.472 129.652 454.556 128.907 453.867Z" fill="#263238"/>
<path d="M110.677 462.627C111.545 466.896 112.414 474.728 109.302 477.584C109.302 477.584 110.524 481.918 118.78 481.918C127.857 481.918 123.113 477.584 123.113 477.584C118.16 476.445 118.284 472.91 119.152 469.587L110.677 462.627Z" fill="#E58A7B"/>
<path d="M108.262 452.894C108.72 460.028 108.759 463.058 112.5 466.722C118.141 472.231 127.151 470.137 128.917 463.049C130.511 456.622 129.499 446.044 122.236 443.207C120.641 442.575 118.906 442.345 117.193 442.538C115.481 442.732 113.848 443.342 112.449 444.312C111.05 445.282 109.931 446.579 109.198 448.08C108.466 449.582 108.144 451.239 108.262 452.894Z" fill="#E58A7B"/>
<path d="M108.997 444.869C105.274 446.173 100.311 445.199 102.258 456.245C104.32 467.943 101.151 471.79 101.151 471.79C101.151 471.79 115.268 474.682 129.68 471.616C129.68 471.616 125.28 464.215 126.511 458.761C128.086 451.875 126.845 449.331 126.845 449.331C126.845 449.331 114.227 443.032 108.997 444.869Z" fill="#263238"/>
<path d="M124.746 456.612C124.749 457.969 125.153 459.297 125.91 460.441C126.922 461.929 128.115 461.359 128.411 459.78C128.678 458.394 128.478 455.942 127.189 454.987C125.901 454.032 124.765 454.969 124.746 456.612Z" fill="#E58A7B"/>
<path d="M105.761 446.072C104.692 443.179 109.789 438.726 120.575 440.562C131.36 442.399 131.828 451.039 131.828 451.039L129.652 448.541L129.747 451.168L118.666 453.215L105.761 446.072Z" fill="#263238"/>
<path d="M106.677 478.071C106.614 477.651 106.723 477.225 106.981 476.882C107.24 476.539 107.627 476.306 108.061 476.234C111.421 475.702 119.057 474.618 122.894 475.132C125.757 475.518 126.502 477.116 126.626 478.429C126.645 478.659 126.613 478.89 126.532 479.107C126.451 479.324 126.322 479.522 126.155 479.687C125.988 479.852 125.786 479.981 125.562 480.065C125.339 480.149 125.1 480.186 124.86 480.173L108.271 479.457C107.88 479.438 107.508 479.29 107.218 479.037C106.927 478.784 106.736 478.443 106.677 478.071Z" fill="#407BFF"/>
<path opacity="0.6" d="M106.677 478.071C106.614 477.651 106.723 477.225 106.981 476.882C107.24 476.539 107.627 476.306 108.061 476.234C111.421 475.702 119.057 474.618 122.894 475.132C125.757 475.518 126.502 477.116 126.626 478.429C126.645 478.659 126.613 478.89 126.532 479.107C126.451 479.324 126.322 479.522 126.155 479.687C125.988 479.852 125.786 479.981 125.562 480.065C125.339 480.149 125.1 480.186 124.86 480.173L108.271 479.457C107.88 479.438 107.508 479.29 107.218 479.037C106.927 478.784 106.736 478.443 106.677 478.071Z" fill="black"/>
<path d="M116.27 638.479L122.426 642.593L132.725 629.16L126.569 625.055L116.27 638.479Z" fill="#E58A7B"/>
<path d="M101.915 638.213L108.415 641.776L117.53 627.571L111.03 624.008L101.915 638.213Z" fill="#E58A7B"/>
<path d="M132.715 629.16L127.408 636.083L121.252 631.978L126.559 625.055L132.715 629.16Z" fill="#CF6F64"/>
<path d="M111.021 624.008L117.53 627.58L112.834 634.898L106.325 631.327L111.021 624.008Z" fill="#CF6F64"/>
<path d="M121.462 522.915C121.462 522.915 145.496 552.05 140.981 579.917C137.345 602.422 116.251 632.897 116.251 632.897L106.334 628.159C113.324 614.684 119.289 600.74 124.183 586.436C125.692 581.995 126.132 577.282 125.471 572.653C124.809 568.025 123.063 563.601 120.365 559.717C108.186 542.611 88.676 552.793 101.8 522.915H121.462Z" fill="#407BFF"/>
<path opacity="0.6" d="M121.462 522.915C121.462 522.915 145.496 552.05 140.981 579.917C137.345 602.422 116.251 632.897 116.251 632.897L106.334 628.159C113.324 614.684 119.289 600.74 124.183 586.436C125.692 581.995 126.132 577.282 125.471 572.653C124.809 568.025 123.063 563.601 120.365 559.717C108.186 542.611 88.676 552.793 101.8 522.915H121.462Z" fill="#091E42"/>
<path opacity="0.4" d="M133.25 541.628L129.757 538.286C129.757 538.552 136.524 578.741 138.423 590.035C139.544 586.736 140.403 583.36 140.991 579.935C143.224 566.263 138.557 552.297 133.25 541.628Z" fill="black"/>
<path d="M132.191 522.915C132.191 522.915 161.131 559.533 161.952 581.487C162.629 599.851 130.454 635.431 130.454 635.431L121.1 629.61C121.1 629.61 139.932 604.341 144.676 583.7C142.843 563.242 104.091 522.915 104.091 522.915H132.191Z" fill="#407BFF"/>
<path opacity="0.6" d="M132.191 522.915C132.191 522.915 161.131 559.533 161.952 581.487C162.629 599.851 130.454 635.431 130.454 635.431L121.1 629.61C121.1 629.61 139.932 604.341 144.676 583.7C142.843 563.242 104.091 522.915 104.091 522.915H132.191Z" fill="#091E42"/>
<path d="M96.3881 479.218C93.2956 479.925 90.3271 490.742 90.3271 490.742L102.42 498.51C102.42 498.51 106.448 489.952 105.036 486.206C103.575 482.304 100.273 478.328 96.3881 479.218Z" fill="#091E42"/>
<path opacity="0.2" d="M98.7555 486.187L97.9155 495.617L102.411 498.519C103.652 495.83 104.571 493.015 105.15 490.127L98.7555 486.187Z" fill="black"/>
<path d="M135.77 479.43C135.77 479.43 139.34 480.632 132.191 522.906H101.781C102.297 510.97 102.306 503.624 96.3887 479.218C100.647 478.374 104.963 477.828 109.303 477.584C113.901 477.267 118.516 477.267 123.114 477.584C129.051 478.107 135.77 479.43 135.77 479.43Z" fill="#091E42"/>
<path d="M138.862 486.187C139.55 488.024 140.275 489.998 141.039 491.899C141.802 493.799 142.528 495.755 143.301 497.683L145.639 503.45L146.231 504.891L146.536 505.607L146.68 505.965C146.68 506.03 146.68 506.03 146.68 506.02C146.505 505.784 146.277 505.589 146.011 505.451C145.634 505.237 145.208 505.115 144.771 505.093C144.407 505.082 144.045 505.148 143.711 505.286C143.272 505.479 143.272 505.561 143.282 505.552C143.361 505.491 143.432 505.42 143.492 505.341C144.02 504.674 144.477 503.957 144.856 503.202C145.305 502.357 145.735 501.457 146.164 500.548C147.004 498.712 147.777 496.811 148.55 494.892C149.323 492.973 150.058 491.036 150.774 489.08L152.95 483.222L156.625 484.14C155.9 488.327 154.964 492.404 153.838 496.554C153.294 498.62 152.655 500.667 151.929 502.733C151.566 503.771 151.166 504.799 150.707 505.855C150.23 507.001 149.642 508.102 148.951 509.142C148.697 509.493 148.417 509.824 148.111 510.134C147.624 510.64 147.032 511.044 146.374 511.318C145.79 511.56 145.157 511.673 144.522 511.649C143.811 511.623 143.118 511.424 142.508 511.071C141.789 510.639 141.193 510.043 140.771 509.335C140.628 509.096 140.504 508.858 140.418 508.683L140.237 508.334L139.874 507.618L139.149 506.195C138.194 504.285 137.24 502.357 136.409 500.419C135.579 498.482 134.701 496.517 133.88 494.543C133.059 492.569 132.324 490.595 131.627 488.465L138.862 486.187Z" fill="#E58A7B"/>
<path d="M135.77 479.43C139.426 480.265 143.539 490.659 143.539 490.659L132.668 499.556C132.668 499.556 125.633 488.226 127.056 484.489C128.535 480.596 130.998 478.337 135.77 479.43Z" fill="#091E42"/>
<path d="M154.678 479.935L158.496 476.868L161.149 480.844L159.193 484.158C159.193 484.158 156.081 486.913 153.332 485.508C152.896 484.565 152.791 483.51 153.034 482.504C153.277 481.499 153.854 480.596 154.678 479.935Z" fill="#E58A7B"/>
<path d="M165.387 476.877L165.101 477.878L159.059 478.851L158.467 476.868L165.387 476.877Z" fill="#E58A7B"/>
<path d="M131.198 635.899L120.298 629.123L122.255 625.854L134.501 633.099L131.198 635.899Z" fill="#407BFF"/>
<path d="M112.681 641.298C111.725 641.186 110.806 640.872 109.989 640.38C109.956 640.369 109.926 640.348 109.906 640.32C109.885 640.292 109.874 640.258 109.874 640.224C109.874 640.19 109.885 640.156 109.906 640.128C109.926 640.1 109.956 640.079 109.989 640.068C110.285 639.976 112.853 639.214 113.597 639.801C113.681 639.868 113.745 639.956 113.781 640.054C113.818 640.153 113.827 640.259 113.807 640.362C113.794 640.527 113.737 640.686 113.642 640.824C113.547 640.963 113.416 641.075 113.263 641.151C113.084 641.245 112.885 641.295 112.681 641.298ZM110.533 640.288C111.727 640.876 112.681 641.087 113.139 640.867C113.239 640.813 113.323 640.737 113.383 640.643C113.443 640.55 113.477 640.444 113.483 640.334C113.483 640.187 113.483 640.123 113.397 640.086C112.996 639.774 111.564 640.013 110.514 640.288H110.533Z" fill="#263238"/>
<path d="M110.056 640.444C110.006 640.443 109.958 640.424 109.923 640.389C109.908 640.364 109.901 640.335 109.901 640.306C109.901 640.278 109.908 640.249 109.923 640.224C109.923 640.141 110.543 638.149 111.516 637.699C111.641 637.644 111.776 637.616 111.913 637.616C112.049 637.616 112.184 637.644 112.309 637.699C112.443 637.74 112.559 637.822 112.638 637.934C112.718 638.045 112.756 638.179 112.748 638.314C112.681 639.14 110.934 640.279 110.133 640.472L110.056 640.444ZM111.908 637.937C111.815 637.94 111.724 637.962 111.641 638.002C111.049 638.277 110.562 639.352 110.323 640.003C111.163 639.664 112.318 638.764 112.356 638.259C112.356 638.176 112.356 638.075 112.137 637.983C112.065 637.946 111.988 637.922 111.908 637.91V637.937Z" fill="#263238"/>
<path d="M126.302 645.265C125.223 645.265 123.725 643.933 122.904 643.116C122.883 643.088 122.872 643.054 122.872 643.02C122.872 642.985 122.883 642.951 122.904 642.923C122.923 642.894 122.949 642.87 122.981 642.853C123.013 642.837 123.049 642.83 123.085 642.832C123.467 642.832 126.779 643.309 127.247 644.209C127.296 644.289 127.322 644.381 127.322 644.475C127.322 644.569 127.296 644.661 127.247 644.741C127.177 644.881 127.071 645.002 126.939 645.092C126.807 645.182 126.653 645.238 126.493 645.256L126.302 645.265ZM123.534 643.245C124.736 644.365 125.796 644.989 126.397 644.916C126.503 644.903 126.603 644.865 126.689 644.805C126.776 644.746 126.846 644.667 126.894 644.576C126.915 644.545 126.926 644.508 126.926 644.47C126.926 644.433 126.915 644.396 126.894 644.365C126.645 643.869 124.88 643.447 123.534 643.245Z" fill="#263238"/>
<path d="M123.639 643.199C123.424 643.205 123.21 643.189 122.999 643.153C122.97 643.149 122.942 643.137 122.918 643.119C122.895 643.102 122.877 643.078 122.865 643.052C122.851 643.025 122.844 642.995 122.844 642.965C122.844 642.934 122.851 642.904 122.865 642.877C122.923 642.813 124.211 641.316 125.433 641.215C125.779 641.19 126.121 641.295 126.387 641.509C126.76 641.821 126.741 642.097 126.645 642.271C126.407 642.896 124.755 643.199 123.639 643.199ZM123.39 642.859C124.459 642.914 126.168 642.574 126.387 642.124C126.387 642.124 126.464 641.978 126.216 641.776C126.117 641.693 126.002 641.631 125.877 641.593C125.752 641.555 125.62 641.542 125.49 641.555C124.667 641.776 123.934 642.234 123.39 642.868V642.859Z" fill="#263238"/>
<path d="M110.314 639.453L102.22 637.249C102.081 637.208 101.931 637.218 101.798 637.278C101.666 637.337 101.562 637.441 101.504 637.57L98.7746 643.474C98.7105 643.625 98.6804 643.788 98.6863 643.951C98.6921 644.114 98.7339 644.275 98.8087 644.421C98.8835 644.568 98.9898 644.697 99.1204 644.802C99.2511 644.906 99.4032 644.982 99.5668 645.026C102.43 645.742 103.805 645.944 107.365 646.927C109.56 647.514 112.691 648.607 115.717 649.433C118.742 650.26 119.754 647.422 118.58 646.816C113.273 644.117 112.853 642.225 111.402 640.205C111.142 639.84 110.757 639.573 110.314 639.453Z" fill="#407BFF"/>
<path d="M123.123 642.042L116.213 637.451C116.096 637.369 115.951 637.331 115.807 637.344C115.663 637.358 115.529 637.422 115.43 637.524L110.849 642.262C110.737 642.385 110.654 642.529 110.605 642.684C110.555 642.84 110.541 643.004 110.563 643.166C110.584 643.327 110.641 643.483 110.73 643.621C110.819 643.76 110.938 643.879 111.078 643.97C113.512 645.54 114.772 646.174 117.817 648.203C119.725 649.452 123.419 652.225 125.996 653.951C128.573 655.677 130.492 653.308 129.576 652.372C125.471 648.157 124.574 645.513 123.897 643.116C123.779 642.681 123.505 642.301 123.123 642.042Z" fill="#407BFF"/>
<path d="M117.52 633.503L105.064 627.544L106.353 624.293L119.658 630.574L117.52 633.503Z" fill="#407BFF"/>
<path d="M101.323 521.189L100.273 523.833C100.168 524.035 100.416 524.247 100.769 524.247H132.343C132.62 524.247 132.849 524.118 132.868 523.953L133.135 521.327C133.135 521.152 132.916 520.996 132.62 520.996H101.819C101.726 520.988 101.633 521.001 101.547 521.035C101.46 521.068 101.383 521.121 101.323 521.189Z" fill="#407BFF"/>
<path opacity="0.4" d="M101.323 521.189L100.273 523.833C100.168 524.035 100.416 524.247 100.769 524.247H132.343C132.62 524.247 132.849 524.118 132.868 523.953L133.135 521.327C133.135 521.152 132.916 520.996 132.62 520.996H101.819C101.726 520.988 101.633 521.001 101.547 521.035C101.46 521.068 101.383 521.121 101.323 521.189Z" fill="white"/>
<path d="M106.296 524.504H105.466C105.304 524.504 105.179 524.421 105.189 524.32L105.58 520.914C105.58 520.822 105.733 520.739 105.895 520.739H106.726C106.888 520.739 107.012 520.822 107.003 520.914L106.611 524.32C106.602 524.421 106.458 524.504 106.296 524.504Z" fill="#407BFF"/>
<path d="M125.767 524.504H124.946C124.784 524.504 124.66 524.421 124.669 524.32L125.051 520.914C125.051 520.822 125.214 520.739 125.376 520.739H126.197C126.359 520.739 126.493 520.822 126.473 520.914L126.092 524.32C126.044 524.421 125.939 524.504 125.767 524.504Z" fill="#407BFF"/>
<g style="mix-blend-mode:multiply">
<path d="M105.57 680C119.693 680 131.141 679.202 131.141 678.219C131.141 677.235 119.693 676.437 105.57 676.437C91.4483 676.437 80 677.235 80 678.219C80 679.202 91.4483 680 105.57 680Z" fill="#F5F5F5"/>
</g>
<path d="M121.147 675.703C116.623 674.436 111.603 672.811 108.567 671.112C108.481 671.057 108.386 671.029 108.3 670.983V651.279H117.453C118.148 651.239 118.801 650.946 119.279 650.459C119.756 649.971 120.022 649.327 120.022 648.657C120.022 647.988 119.756 647.344 119.279 646.856C118.801 646.369 118.148 646.076 117.453 646.036H108.348V556.218H102.85V646.036H93.7538C93.3824 646.015 93.0104 646.067 92.6607 646.189C92.311 646.311 91.9909 646.501 91.7201 646.746C91.4494 646.992 91.2336 647.288 91.0862 647.617C90.9387 647.945 90.8627 648.299 90.8627 648.657C90.8627 649.015 90.9387 649.37 91.0862 649.698C91.2336 650.027 91.4494 650.323 91.7201 650.568C91.9909 650.814 92.311 651.004 92.6607 651.126C93.0104 651.248 93.3824 651.3 93.7538 651.279H102.85V670.956C102.764 670.956 102.678 671.029 102.592 671.084C99.5093 672.811 94.527 674.436 90.0027 675.675C89.6971 675.764 89.4347 675.955 89.263 676.214C89.0912 676.473 89.0216 676.783 89.0666 677.087C89.1116 677.391 89.2682 677.67 89.5082 677.872C89.7483 678.075 90.0557 678.188 90.375 678.191H120.775C121.08 678.171 121.369 678.051 121.593 677.851C121.817 677.651 121.963 677.383 122.007 677.092C122.05 676.801 121.989 676.504 121.832 676.251C121.676 675.998 121.434 675.805 121.147 675.703Z" fill="#E0E0E0"/>
<path d="M122.55 547.073H88.6092C85.8786 547.073 83.665 549.202 83.665 551.829V561.535C83.665 564.161 85.8786 566.291 88.6092 566.291H122.55C125.281 566.291 127.495 564.161 127.495 561.535V551.829C127.495 549.202 125.281 547.073 122.55 547.073Z" fill="#091E42"/>
<path d="M88.2949 566.3V567.971C88.2949 569.348 89.8507 570.469 91.7597 570.469H119.439C121.348 570.469 122.904 569.348 122.904 567.971V566.3H88.2949Z" fill="#407BFF"/>
<path opacity="0.3" d="M88.2949 566.3V567.971C88.2949 569.348 89.8507 570.469 91.7597 570.469H119.439C121.348 570.469 122.904 569.348 122.904 567.971V566.3H88.2949Z" fill="#96B8EA"/>
<path d="M295.543 431.596L291.21 426.491L285.158 430.163C285.158 430.163 287.926 433.01 291.286 436.986L295.543 431.596Z" fill="#B55B52"/>
<path d="M349.576 432.009C349.328 432.523 349.156 432.835 348.946 433.23L348.345 434.332C347.934 435.057 347.533 435.774 347.104 436.481C346.264 437.889 345.382 439.272 344.46 440.631C342.605 443.413 340.558 446.073 338.332 448.592C335.974 451.28 333.317 453.712 330.41 455.845C328.801 456.989 327.089 457.991 325.294 458.839L323.853 459.454L322.335 459.996C321.829 460.17 321.285 460.299 320.751 460.445L320.35 460.556L319.777 460.675C319.357 460.758 318.947 460.813 318.546 460.859C317.085 460.996 315.612 460.922 314.174 460.638C312.996 460.416 311.843 460.087 310.729 459.656C308.871 458.924 307.093 458.017 305.422 456.947C302.529 455.071 299.806 452.964 297.28 450.648C294.827 448.454 292.555 446.186 290.379 443.872C289.291 442.706 288.213 441.549 287.163 440.355C286.113 439.162 285.111 438.014 284.022 436.683L294.579 428.805C295.4 429.805 296.383 430.953 297.328 432.009C298.273 433.065 299.237 434.148 300.249 435.186C302.253 437.252 304.305 439.244 306.414 441.072C308.402 442.827 310.545 444.412 312.819 445.809C313.724 446.366 314.683 446.837 315.682 447.214C316.503 447.517 317.114 447.508 316.933 447.462H316.837C316.837 447.462 316.761 447.462 316.837 447.462L317 447.416C317.21 447.334 317.41 447.288 317.63 447.205L318.269 446.939L318.937 446.617C319.891 446.109 320.798 445.522 321.648 444.864C323.599 443.302 325.357 441.531 326.888 439.584C328.562 437.487 330.084 435.282 331.441 432.982C332.141 431.807 332.799 430.613 333.417 429.401C333.732 428.805 334.037 428.199 334.371 427.565L334.791 426.647C334.915 426.371 335.077 426.013 335.144 425.848L349.576 432.009Z" fill="#407BFF"/>
<path opacity="0.8" d="M349.576 432.009C349.328 432.523 349.156 432.835 348.946 433.23L348.345 434.332C347.934 435.057 347.533 435.774 347.104 436.481C346.264 437.889 345.382 439.272 344.46 440.631C342.605 443.413 340.558 446.073 338.332 448.592C335.974 451.28 333.317 453.712 330.41 455.845C328.801 456.989 327.089 457.991 325.294 458.839L323.853 459.454L322.335 459.996C321.829 460.17 321.285 460.299 320.751 460.445L320.35 460.556L319.777 460.675C319.357 460.758 318.947 460.813 318.546 460.859C317.085 460.996 315.612 460.922 314.174 460.638C312.996 460.416 311.843 460.087 310.729 459.656C308.871 458.924 307.093 458.017 305.422 456.947C302.529 455.071 299.806 452.964 297.28 450.648C294.827 448.454 292.555 446.186 290.379 443.872C289.291 442.706 288.213 441.549 287.163 440.355C286.113 439.162 285.111 438.014 284.022 436.683L294.579 428.805C295.4 429.805 296.383 430.953 297.328 432.009C298.273 433.065 299.237 434.148 300.249 435.186C302.253 437.252 304.305 439.244 306.414 441.072C308.402 442.827 310.545 444.412 312.819 445.809C313.724 446.366 314.683 446.837 315.682 447.214C316.503 447.517 317.114 447.508 316.933 447.462H316.837C316.837 447.462 316.761 447.462 316.837 447.462L317 447.416C317.21 447.334 317.41 447.288 317.63 447.205L318.269 446.939L318.937 446.617C319.891 446.109 320.798 445.522 321.648 444.864C323.599 443.302 325.357 441.531 326.888 439.584C328.562 437.487 330.084 435.282 331.441 432.982C332.141 431.807 332.799 430.613 333.417 429.401C333.732 428.805 334.037 428.199 334.371 427.565L334.791 426.647C334.915 426.371 335.077 426.013 335.144 425.848L349.576 432.009Z" fill="white"/>
<path d="M347.457 578.755H378.267L366.585 522.58H351.494L347.457 578.755Z" fill="#407BFF"/>
<path opacity="0.6" d="M347.457 578.755H378.267L366.585 522.58H351.494L347.457 578.755Z" fill="white"/>
<path d="M354.062 671.217H346.207L345.873 653.725H353.728L354.062 671.217Z" fill="#B55B52"/>
<path d="M397.557 671.217H389.702L386.199 653.725H394.054L397.557 671.217Z" fill="#B55B52"/>
<path d="M389.167 670.345H397.948C398.103 670.344 398.253 670.395 398.373 670.488C398.494 670.582 398.576 670.713 398.607 670.859L399.981 677.571C400.013 677.736 400.005 677.907 399.96 678.069C399.914 678.231 399.832 678.382 399.719 678.51C399.606 678.638 399.464 678.741 399.305 678.81C399.146 678.88 398.973 678.914 398.798 678.912C395.725 678.866 394.236 678.691 390.351 678.691C387.965 678.691 383.04 678.93 379.747 678.93C376.454 678.93 376.101 675.799 377.456 675.514C383.536 674.238 385.865 672.484 387.841 670.804C388.211 670.502 388.682 670.339 389.167 670.345Z" fill="#263238"/>
<path d="M346.283 670.345H354.873C355.027 670.344 355.175 670.395 355.294 670.489C355.412 670.583 355.493 670.714 355.522 670.859L356.906 677.553C356.938 677.717 356.933 677.887 356.889 678.049C356.845 678.211 356.765 678.362 356.654 678.491C356.543 678.62 356.403 678.724 356.245 678.795C356.088 678.866 355.916 678.903 355.742 678.902C352.649 678.847 348.182 678.673 344.288 678.673C339.745 678.673 339.372 678.912 334.046 678.912C330.82 678.912 330.009 675.781 331.364 675.496C337.54 674.201 339 674.064 344.383 670.905C344.952 670.555 345.608 670.362 346.283 670.345Z" fill="#263238"/>
<path d="M288.279 424.746L283.202 424.673L282.247 430.971C285.48 431.54 288.814 431.222 291.868 430.053L291.782 428.006C291.743 427.134 291.358 426.31 290.706 425.704C290.055 425.098 289.186 424.755 288.279 424.746Z" fill="#B55B52"/>
<path d="M275.26 424.966L276.243 428.942L282.228 430.971L283.201 424.673L275.26 424.966Z" fill="#B55B52"/>
<path opacity="0.2" d="M345.873 653.735L346.044 662.751H353.9L353.728 653.735H345.873Z" fill="black"/>
<path opacity="0.2" d="M394.054 653.735H386.199L388.012 662.751H395.868L394.054 653.735Z" fill="black"/>
<path d="M336.605 427.317C334.428 435.324 330.525 455.524 334.791 487.652H376.788C377.198 482.023 374.526 456.562 379.25 430.053C379.449 428.974 379.416 427.867 379.153 426.801C378.891 425.734 378.403 424.731 377.722 423.852C377.04 422.974 376.179 422.239 375.191 421.693C374.203 421.147 373.109 420.802 371.977 420.678C370.345 420.504 368.618 420.357 366.909 420.274C361.039 420.117 355.165 420.301 349.318 420.825C346.824 421.054 344.356 421.491 341.94 422.129C340.654 422.465 339.484 423.122 338.547 424.033C337.61 424.944 336.94 426.077 336.605 427.317Z" fill="white"/>
<path d="M364.981 404.215C363.711 409.724 362.976 416.583 366.89 420.274C366.89 420.274 364.437 425.875 353.766 425.875C344.011 425.875 348.993 420.274 348.993 420.274C355.436 418.805 355.303 411.184 354.291 406.887L364.981 404.215Z" fill="#B55B52"/>
<path d="M353.279 425.113L350.969 427.565C350.888 427.65 350.831 427.754 350.806 427.867C350.781 427.98 350.788 428.098 350.826 428.208L351.561 430.375C351.602 430.496 351.681 430.603 351.786 430.68C351.892 430.757 352.02 430.801 352.153 430.806L354.644 430.926C354.762 430.93 354.879 430.906 354.985 430.854C355.09 430.803 355.18 430.726 355.245 430.632L356.734 428.529C356.824 428.416 356.873 428.277 356.873 428.134C356.873 427.992 356.824 427.853 356.734 427.739L354.329 425.104C354.266 425.028 354.185 424.967 354.094 424.926C354.003 424.884 353.903 424.863 353.802 424.864C353.701 424.864 353.601 424.887 353.511 424.931C353.42 424.974 353.341 425.036 353.279 425.113Z" fill="#407BFF"/>
<path d="M352.697 430.788C352.697 430.788 348.879 457.819 348.793 462.53C348.843 466.978 349.57 471.396 350.95 475.642C350.95 475.642 353.575 470.867 354.023 462.328C354.472 453.789 353.928 435.581 354.128 430.788H352.697Z" fill="#407BFF"/>
<path opacity="0.2" d="M354.348 406.896C354.949 409.412 355.236 413.067 354.071 415.968C354.835 416.29 357.985 415.123 359.292 414.325C362.203 412.543 363.33 410.799 364.399 407.08C364.571 406.098 364.761 405.143 364.981 404.215L354.348 406.896Z" fill="black"/>
<path d="M344.383 401.525C344.735 402.384 345.262 403.167 345.932 403.827C346.602 404.488 347.403 405.013 348.287 405.372C350.664 406.29 352.201 404.289 351.819 401.947C351.485 399.845 349.834 396.815 347.314 396.879C346.758 396.909 346.219 397.069 345.743 397.344C345.266 397.62 344.866 398.003 344.578 398.46C344.289 398.917 344.121 399.435 344.087 399.969C344.053 400.503 344.155 401.037 344.383 401.525Z" fill="#B55B52"/>
<path opacity="0.2" d="M344.383 401.525C344.735 402.384 345.262 403.167 345.932 403.827C346.602 404.488 347.403 405.013 348.287 405.372C350.664 406.29 352.201 404.289 351.819 401.947C351.485 399.845 349.834 396.815 347.314 396.879C346.758 396.909 346.219 397.069 345.743 397.344C345.266 397.62 344.866 398.003 344.578 398.46C344.289 398.917 344.121 399.435 344.087 399.969C344.053 400.503 344.155 401.037 344.383 401.525Z" fill="black"/>
<path d="M354.042 393.252C353.594 396.484 351.494 398.89 349.356 398.614C347.218 398.339 345.853 395.492 346.311 392.251C346.769 389.01 348.86 386.604 350.998 386.88C353.136 387.155 354.52 390.011 354.042 393.252Z" fill="#263238"/>
<path d="M368.741 397.053C366.832 404.399 366.088 408.769 361.497 411.946C354.606 416.73 345.872 411.809 345.509 404.114C345.175 397.191 348.373 386.356 356.39 384.612C358.148 384.221 359.982 384.276 361.711 384.774C363.44 385.271 365.004 386.192 366.25 387.448C367.496 388.703 368.381 390.249 368.818 391.933C369.255 393.617 369.229 395.382 368.741 397.053Z" fill="#B55B52"/>
<path d="M356.066 382.05C351.494 382.968 346.435 386.558 350.797 389.175C355.159 391.792 364.981 392.196 364.981 392.196C364.981 392.196 361.736 399.542 366.174 403.334C367.653 402.627 364.494 409.036 364.494 409.036C366.12 408.497 367.48 407.398 368.312 405.951C370.965 405.299 378.811 393.096 373.581 389.643C372.588 382.527 362.203 380.774 356.066 382.05Z" fill="#263238"/>
<path d="M367.1 401.479H366.995L360.123 398.449C360.089 398.44 360.057 398.423 360.03 398.401C360.003 398.379 359.981 398.351 359.966 398.32C359.951 398.289 359.943 398.256 359.943 398.221C359.943 398.187 359.95 398.153 359.964 398.122C359.979 398.091 360 398.063 360.027 398.04C360.054 398.018 360.085 398.001 360.119 397.991C360.153 397.981 360.189 397.978 360.224 397.983C360.259 397.987 360.293 397.999 360.323 398.017L367.205 401.047C367.264 401.074 367.31 401.121 367.333 401.179C367.357 401.238 367.355 401.302 367.329 401.36C367.306 401.398 367.273 401.43 367.232 401.451C367.192 401.472 367.146 401.482 367.1 401.479Z" fill="white"/>
<path d="M370.584 405.767C369.264 407.173 367.424 408.027 365.458 408.145C362.871 408.274 362.203 405.896 363.444 403.82C364.561 401.984 367.262 399.633 369.591 400.487C371.92 401.341 372.178 404.032 370.584 405.767Z" fill="#B55B52"/>
<path d="M334.791 487.652C334.791 487.652 332.271 544.121 332.538 567.158C332.815 591.114 343.171 660.998 343.171 660.998H356.467C356.467 660.998 355.274 592.509 356.467 568.985C357.765 543.331 362.404 487.652 362.404 487.652H334.791Z" fill="#091E42"/>
<path d="M357.087 655.351C357.154 655.351 357.335 661.264 357.335 661.264H342.007L341.128 654.836L357.087 655.351Z" fill="#263238"/>
<path opacity="0.2" d="M352.783 502.6C352.325 530.623 353.642 547.646 356.896 561.364C357.698 547.995 359.006 530.32 360.161 515.638L352.783 502.6Z" fill="black"/>
<path d="M349.69 487.652C349.69 487.652 357.135 545.369 361.468 566.993C366.241 590.673 384.376 660.998 384.376 660.998H398.76C398.76 660.998 387.411 592.592 384.948 569.178C382.285 543.735 376.768 487.688 376.768 487.688L349.69 487.652Z" fill="#091E42"/>
<path d="M398.416 655.663C398.483 655.663 399.485 661.264 399.485 661.264H383.679L381.942 655.094L398.416 655.663Z" fill="#263238"/>
<path d="M356.801 397.246C356.677 397.852 356.257 398.284 355.847 398.219C355.436 398.155 355.207 397.613 355.322 397.007C355.436 396.401 355.866 395.97 356.276 396.034C356.687 396.098 356.906 396.64 356.801 397.246Z" fill="#263238"/>
<path d="M349.099 395.502C348.984 396.108 348.555 396.539 348.144 396.475C347.734 396.411 347.505 395.869 347.619 395.263C347.734 394.657 348.163 394.225 348.574 394.29C348.984 394.354 349.213 394.896 349.099 395.502Z" fill="#263238"/>
<path d="M352.305 397.017C350.999 398.603 349.477 400.015 347.781 401.213C348.102 401.615 348.512 401.944 348.98 402.175C349.449 402.407 349.965 402.536 350.492 402.553L352.305 397.017Z" fill="#A02724"/>
<path d="M352.324 404.436C352.277 404.425 352.236 404.397 352.209 404.357C352.183 404.318 352.173 404.271 352.181 404.224C352.191 404.177 352.219 404.135 352.26 404.108C352.301 404.08 352.351 404.069 352.401 404.078C353.176 404.214 353.973 404.176 354.73 403.966C355.487 403.755 356.183 403.379 356.763 402.865C356.796 402.831 356.841 402.811 356.89 402.81C356.938 402.808 356.985 402.825 357.02 402.856C357.056 402.888 357.077 402.932 357.079 402.978C357.08 403.025 357.063 403.07 357.03 403.104C356.412 403.669 355.663 404.085 354.844 404.317C354.026 404.548 353.162 404.589 352.324 404.436Z" fill="#263238"/>
<path d="M360.533 395.281C360.477 395.268 360.425 395.242 360.381 395.205C360.338 395.169 360.305 395.122 360.285 395.07C360.134 394.655 359.881 394.281 359.549 393.979C359.217 393.677 358.815 393.456 358.376 393.335C358.28 393.315 358.196 393.259 358.142 393.18C358.089 393.101 358.07 393.005 358.089 392.912C358.11 392.819 358.167 392.738 358.249 392.685C358.331 392.632 358.431 392.611 358.529 392.628C359.098 392.762 359.623 393.031 360.058 393.409C360.493 393.787 360.823 394.263 361.02 394.795C361.052 394.885 361.047 394.983 361.006 395.07C360.965 395.157 360.892 395.226 360.8 395.263C360.716 395.3 360.621 395.306 360.533 395.281Z" fill="#263238"/>
<path d="M347.123 392.609C347.069 392.598 347.019 392.573 346.98 392.536C346.912 392.468 346.875 392.377 346.875 392.283C346.875 392.189 346.912 392.099 346.98 392.031C347.349 391.584 347.822 391.225 348.36 390.985C348.899 390.744 349.488 390.627 350.082 390.644C350.129 390.65 350.176 390.665 350.217 390.688C350.259 390.711 350.296 390.741 350.325 390.778C350.354 390.815 350.376 390.857 350.388 390.902C350.4 390.947 350.403 390.993 350.397 391.039C350.392 391.086 350.377 391.132 350.354 391.174C350.331 391.215 350.299 391.252 350.261 391.282C350.223 391.312 350.179 391.334 350.132 391.348C350.085 391.361 350.035 391.366 349.986 391.361C349.517 391.351 349.051 391.448 348.628 391.644C348.205 391.841 347.837 392.13 347.552 392.49C347.502 392.55 347.434 392.593 347.357 392.614C347.28 392.636 347.198 392.634 347.123 392.609Z" fill="#263238"/>
<path d="M356.658 401.543C356.469 401.541 356.281 401.526 356.095 401.497C355.647 401.416 355.222 401.249 354.841 401.008C354.461 400.767 354.135 400.456 353.88 400.093C353.555 399.625 353.328 399.101 353.214 398.55C353.099 397.998 353.099 397.431 353.212 396.879C353.342 395.874 353.874 394.958 354.697 394.327C355.519 393.696 356.566 393.399 357.612 393.5C358.515 393.668 359.311 394.173 359.827 394.905C360.48 395.85 360.72 397.004 360.495 398.118C360.365 399.028 359.911 399.865 359.212 400.49C358.512 401.114 357.61 401.486 356.658 401.543ZM357.04 393.931C356.205 393.988 355.416 394.321 354.808 394.873C354.199 395.425 353.807 396.163 353.699 396.962C353.494 397.953 353.704 398.982 354.281 399.826C354.501 400.138 354.783 400.405 355.111 400.611C355.438 400.818 355.805 400.96 356.19 401.029C357.107 401.109 358.02 400.841 358.734 400.281C359.447 399.722 359.905 398.916 360.008 398.036C360.21 397.043 359.997 396.014 359.416 395.171C359.197 394.859 358.915 394.591 358.588 394.385C358.26 394.178 357.893 394.037 357.507 393.968C357.353 393.943 357.196 393.931 357.04 393.931Z" fill="white"/>
<path d="M353.451 397.154C353.411 397.154 353.373 397.145 353.338 397.127C353.303 397.11 353.273 397.084 353.25 397.053C353.095 396.752 352.831 396.516 352.508 396.389C352.184 396.262 351.824 396.254 351.494 396.365C351.433 396.387 351.366 396.386 351.306 396.362C351.245 396.338 351.197 396.293 351.17 396.236C351.144 396.179 351.142 396.114 351.165 396.056C351.188 395.997 351.235 395.95 351.294 395.924C351.73 395.775 352.208 395.78 352.642 395.938C353.075 396.096 353.436 396.397 353.661 396.787C353.678 396.814 353.69 396.843 353.696 396.874C353.702 396.905 353.701 396.937 353.694 396.968C353.687 396.998 353.674 397.027 353.655 397.053C353.636 397.079 353.612 397.101 353.584 397.118C353.545 397.143 353.498 397.156 353.451 397.154Z" fill="white"/>
<path d="M347.81 399.606C347.618 399.604 347.426 399.589 347.237 399.56C346.79 399.478 346.364 399.312 345.984 399.071C345.604 398.83 345.277 398.518 345.023 398.155C344.369 397.21 344.129 396.056 344.355 394.941C344.484 393.938 345.017 393.023 345.84 392.393C346.662 391.763 347.709 391.468 348.755 391.572C349.202 391.65 349.629 391.814 350.009 392.054C350.389 392.293 350.716 392.604 350.969 392.967C351.623 393.916 351.863 395.073 351.637 396.19C351.507 397.097 351.055 397.932 350.357 398.555C349.659 399.178 348.759 399.549 347.81 399.606ZM348.182 391.994C347.347 392.051 346.559 392.384 345.95 392.936C345.341 393.488 344.949 394.226 344.841 395.024C344.739 395.516 344.739 396.022 344.841 396.513C344.942 397.005 345.143 397.472 345.433 397.889C345.652 398.201 345.934 398.469 346.262 398.675C346.589 398.882 346.957 399.023 347.342 399.092C348.259 399.172 349.172 398.903 349.885 398.344C350.599 397.784 351.056 396.978 351.16 396.098C351.365 395.106 351.152 394.075 350.568 393.234C350.122 392.605 349.436 392.173 348.659 392.031C348.501 392.005 348.342 391.993 348.182 391.994Z" fill="white"/>
<path d="M386.495 671.658C385.965 671.698 385.437 671.566 384.996 671.281C384.864 671.167 384.762 671.024 384.699 670.864C384.636 670.705 384.614 670.533 384.633 670.363C384.638 670.257 384.671 670.154 384.73 670.064C384.789 669.974 384.87 669.9 384.967 669.849C385.836 669.427 388.337 670.923 388.623 671.089C388.655 671.107 388.679 671.135 388.693 671.168C388.707 671.201 388.709 671.238 388.699 671.272C388.694 671.308 388.678 671.341 388.652 671.368C388.627 671.394 388.593 671.412 388.556 671.419C387.881 671.573 387.189 671.653 386.495 671.658ZM385.368 670.097C385.286 670.096 385.205 670.112 385.13 670.143C385.091 670.163 385.058 670.194 385.036 670.231C385.014 670.269 385.004 670.311 385.006 670.354C384.986 670.473 384.997 670.595 385.039 670.709C385.081 670.823 385.151 670.925 385.244 671.006C385.664 671.355 386.686 671.401 388.031 671.144C387.235 670.634 386.344 670.279 385.407 670.097H385.368Z" fill="#407BFF"/>
<path d="M388.556 671.401C388.529 671.41 388.498 671.41 388.47 671.401C387.669 670.978 386.132 669.326 386.323 668.481C386.355 668.35 386.431 668.232 386.54 668.148C386.649 668.063 386.784 668.015 386.924 668.013C387.066 667.995 387.209 668.006 387.346 668.046C387.482 668.085 387.609 668.152 387.716 668.242C388.604 668.958 388.738 671.134 388.747 671.235C388.742 671.283 388.72 671.328 388.686 671.363C388.651 671.398 388.606 671.421 388.556 671.428V671.401ZM387.048 668.371H386.962C386.724 668.371 386.695 668.499 386.686 668.545C386.581 669.041 387.545 670.299 388.337 670.887C388.303 670.031 388 669.205 387.468 668.518C387.351 668.422 387.202 668.37 387.048 668.371Z" fill="#407BFF"/>
<path d="M342.99 671.667C342.317 671.728 341.642 671.563 341.081 671.199C340.955 671.091 340.859 670.955 340.803 670.803C340.746 670.65 340.73 670.486 340.757 670.326C340.763 670.229 340.795 670.135 340.85 670.053C340.906 669.971 340.982 669.904 341.072 669.858C342.026 669.335 345.157 670.877 345.51 671.061C345.545 671.077 345.574 671.104 345.592 671.138C345.61 671.171 345.617 671.21 345.61 671.247C345.604 671.284 345.585 671.319 345.556 671.345C345.528 671.371 345.492 671.387 345.453 671.392C344.642 671.557 343.818 671.649 342.99 671.667ZM341.635 670.097C341.514 670.095 341.394 670.117 341.282 670.161C341.246 670.181 341.217 670.209 341.197 670.243C341.177 670.277 341.167 670.315 341.167 670.354C341.147 670.46 341.156 670.568 341.193 670.67C341.23 670.771 341.293 670.862 341.377 670.932C341.845 671.346 343.133 671.419 344.88 671.134C343.867 670.614 342.77 670.263 341.635 670.097Z" fill="#407BFF"/>
<path d="M345.453 671.401H345.376C344.422 670.988 342.608 669.362 342.77 668.499C342.77 668.306 342.961 668.049 343.477 668.003C343.66 667.982 343.845 667.998 344.021 668.05C344.197 668.102 344.36 668.19 344.498 668.306C345.453 669.096 345.634 671.134 345.643 671.217C345.644 671.248 345.638 671.279 345.625 671.308C345.611 671.337 345.592 671.362 345.567 671.382C345.531 671.396 345.492 671.403 345.453 671.401ZM343.591 668.371H343.477C343.143 668.371 343.114 668.527 343.105 668.573C343.009 669.078 344.25 670.363 345.204 670.923C345.145 670.07 344.811 669.255 344.25 668.591C344.067 668.44 343.832 668.362 343.591 668.371Z" fill="#407BFF"/>
<path d="M367.405 419.769L376.473 420.816C377.976 420.988 379.358 421.697 380.344 422.802C381.331 423.907 381.85 425.329 381.798 426.784C381.34 440.383 379.47 459.068 380.968 487.652C381.722 502.067 392.193 580.343 392.193 580.343L371.567 583.823C361.717 553.744 354.815 522.843 350.95 491.526C349.45 477.916 349.399 464.195 350.797 450.575L367.405 419.769Z" fill="#407BFF"/>
<path opacity="0.8" d="M367.405 419.769L376.473 420.816C377.976 420.988 379.358 421.697 380.344 422.802C381.331 423.907 381.85 425.329 381.798 426.784C381.34 440.383 379.47 459.068 380.968 487.652C381.722 502.067 392.193 580.343 392.193 580.343L371.567 583.823C361.717 553.744 354.815 522.843 350.95 491.526C349.45 477.916 349.399 464.195 350.797 450.575L367.405 419.769Z" fill="white"/>
<path opacity="0.2" d="M374.812 437.123C374.812 439.162 376.435 449.537 380.453 456.699C380.568 451.814 380.749 447.352 380.959 443.257L374.812 437.123Z" fill="#407BFF"/>
<path opacity="0.2" d="M335.784 435.305C334.619 437.445 331.259 446.516 329.551 456.424C330.333 455.9 331.078 455.359 331.794 454.808C334.433 452.7 336.855 450.354 339.029 447.802L339.449 447.306L335.784 435.305Z" fill="#407BFF"/>
<path d="M348.249 420.66L342.894 421.284C340.328 421.588 337.957 422.761 336.208 424.594C334.459 426.426 333.446 428.798 333.35 431.284C332.739 446.544 331.498 477.028 330.82 487.652C329.866 502.058 330.543 580.343 330.543 580.343L343.4 582.51C343.4 582.51 346.664 539.41 350.988 491.526C352.097 477.314 352.362 463.053 351.78 448.812L348.249 420.66Z" fill="#407BFF"/>
<path opacity="0.8" d="M348.249 420.66L342.894 421.284C340.328 421.588 337.957 422.761 336.208 424.594C334.459 426.426 333.446 428.798 333.35 431.284C332.739 446.544 331.498 477.028 330.82 487.652C329.866 502.058 330.543 580.343 330.543 580.343L343.4 582.51C343.4 582.51 346.664 539.41 350.988 491.526C352.097 477.314 352.362 463.053 351.78 448.812L348.249 420.66Z" fill="white"/>
<path d="M353.785 424.893C354.981 426.74 355.943 428.72 356.648 430.788C356.648 430.788 369.18 426.647 368.732 420.008C368.732 420.008 366.823 418.925 365.677 418.043C365.668 418.043 365.105 422.23 353.785 424.893Z" fill="#F5F5F5"/>
<path d="M353.785 424.893C352.357 426.481 351.159 428.247 350.225 430.145C348.683 429.03 347.548 427.476 346.981 425.703C346.413 423.93 346.443 422.03 347.065 420.274C348.184 419.84 349.336 419.49 350.511 419.228C350.511 419.228 349.604 423.47 353.785 424.893Z" fill="#F5F5F5"/>
<path opacity="0.2" d="M366.804 491.664L381.169 503.536L371.357 498.918L366.804 491.664Z" fill="#407BFF"/>
<path d="M381.226 424.296C381.837 425.113 382.295 425.756 382.811 426.481L384.271 428.603C385.225 430.023 386.151 431.458 387.048 432.909C388.852 435.82 390.551 438.794 392.117 441.907C393.734 445.091 395.109 448.384 396.231 451.759C396.828 453.564 397.3 455.404 397.643 457.269C398.007 459.287 398.17 461.335 398.13 463.384C397.952 467.249 397.177 471.068 395.83 474.714C394.61 478.07 393.103 481.322 391.325 484.438C389.632 487.451 387.768 490.372 385.741 493.188C384.748 494.59 383.724 495.967 382.667 497.32C382.142 498 381.598 498.679 381.045 499.349C380.491 500.02 379.966 500.644 379.279 501.415L369.19 492.996C369.572 492.555 370.145 491.93 370.565 491.361L371.977 489.598C372.932 488.405 373.81 487.193 374.679 485.925C376.392 483.477 377.963 480.939 379.384 478.323C380.747 475.822 381.887 473.214 382.792 470.527C383.627 468.159 384.081 465.682 384.137 463.182C384.023 460.746 383.505 458.344 382.601 456.066C381.599 453.402 380.383 450.817 378.964 448.335C377.513 445.764 375.9 443.211 374.192 440.723C373.323 439.483 372.426 438.253 371.51 437.05L370.116 435.259C369.658 434.69 369.162 434.047 368.751 433.597L381.226 424.296Z" fill="#407BFF"/>
<path opacity="0.8" d="M381.226 424.296C381.837 425.113 382.295 425.756 382.811 426.481L384.271 428.603C385.225 430.023 386.151 431.458 387.048 432.909C388.852 435.82 390.551 438.794 392.117 441.907C393.734 445.091 395.109 448.384 396.231 451.759C396.828 453.564 397.3 455.404 397.643 457.269C398.007 459.287 398.17 461.335 398.13 463.384C397.952 467.249 397.177 471.068 395.83 474.714C394.61 478.07 393.103 481.322 391.325 484.438C389.632 487.451 387.768 490.372 385.741 493.188C384.748 494.59 383.724 495.967 382.667 497.32C382.142 498 381.598 498.679 381.045 499.349C380.491 500.02 379.966 500.644 379.279 501.415L369.19 492.996C369.572 492.555 370.145 491.93 370.565 491.361L371.977 489.598C372.932 488.405 373.81 487.193 374.679 485.925C376.392 483.477 377.963 480.939 379.384 478.323C380.747 475.822 381.887 473.214 382.792 470.527C383.627 468.159 384.081 465.682 384.137 463.182C384.023 460.746 383.505 458.344 382.601 456.066C381.599 453.402 380.383 450.817 378.964 448.335C377.513 445.764 375.9 443.211 374.192 440.723C373.323 439.483 372.426 438.253 371.51 437.05L370.116 435.259C369.658 434.69 369.162 434.047 368.751 433.597L381.226 424.296Z" fill="white"/>
<path d="M368.36 440.218C368.052 440.911 367.502 441.479 366.805 441.824C366.108 442.17 365.308 442.27 364.542 442.109C364.193 442.036 363.865 441.888 363.583 441.677C363.301 441.467 363.072 441.198 362.911 440.891C362.751 440.583 362.665 440.246 362.658 439.902C362.651 439.558 362.724 439.218 362.872 438.905C363.18 438.212 363.73 437.645 364.428 437.301C365.125 436.957 365.925 436.859 366.689 437.022C367.038 437.094 367.366 437.241 367.648 437.451C367.93 437.661 368.16 437.929 368.32 438.235C368.48 438.542 368.567 438.879 368.574 439.222C368.581 439.565 368.508 439.905 368.36 440.218Z" fill="#263238"/>
<path opacity="0.2" d="M368.36 440.218C368.052 440.911 367.502 441.479 366.805 441.824C366.108 442.17 365.308 442.27 364.542 442.109C364.193 442.036 363.865 441.888 363.583 441.677C363.301 441.467 363.072 441.198 362.911 440.891C362.751 440.583 362.665 440.246 362.658 439.902C362.651 439.558 362.724 439.218 362.872 438.905C363.18 438.212 363.73 437.645 364.428 437.301C365.125 436.957 365.925 436.859 366.689 437.022C367.038 437.094 367.366 437.241 367.648 437.451C367.93 437.661 368.16 437.929 368.32 438.235C368.48 438.542 368.567 438.879 368.574 439.222C368.581 439.565 368.508 439.905 368.36 440.218Z" fill="white"/>
<path d="M365.22 438.822C365.141 438.823 365.064 438.801 365 438.758C364.921 438.703 364.868 438.62 364.852 438.527C364.835 438.434 364.858 438.339 364.914 438.262C372.015 428.759 370.03 420.311 370.011 420.229C369.991 420.181 369.982 420.129 369.984 420.078C369.987 420.026 370.001 419.976 370.025 419.93C370.05 419.884 370.084 419.844 370.126 419.812C370.168 419.781 370.217 419.758 370.269 419.746C370.321 419.734 370.375 419.733 370.428 419.743C370.481 419.753 370.53 419.773 370.574 419.804C370.617 419.834 370.653 419.873 370.68 419.917C370.706 419.962 370.722 420.012 370.727 420.063C370.727 420.146 372.827 428.896 365.515 438.675C365.483 438.722 365.439 438.76 365.387 438.785C365.336 438.811 365.278 438.824 365.22 438.822Z" fill="#263238"/>
<path d="M340.46 434.001C340.367 434 340.278 433.965 340.209 433.904C340.14 433.843 340.097 433.76 340.088 433.671C339.315 424.342 344.45 420.899 344.669 420.761C344.751 420.71 344.85 420.691 344.946 420.708C345.042 420.726 345.127 420.777 345.185 420.853C345.239 420.932 345.259 421.029 345.239 421.122C345.219 421.215 345.162 421.296 345.08 421.349C345.032 421.349 340.088 424.728 340.832 433.616C340.838 433.709 340.805 433.801 340.741 433.871C340.676 433.942 340.586 433.985 340.489 433.992L340.46 434.001Z" fill="#263238"/>
<path d="M367.319 439.97C367.01 440.662 366.459 441.229 365.763 441.574C365.067 441.919 364.267 442.021 363.502 441.861C363.152 441.789 362.823 441.643 362.54 441.432C362.257 441.222 362.026 440.953 361.866 440.645C361.706 440.337 361.619 439.999 361.613 439.655C361.607 439.311 361.682 438.969 361.831 438.657C362.148 437.972 362.702 437.415 363.398 437.08C364.094 436.745 364.89 436.653 365.649 436.82C365.991 436.895 366.311 437.042 366.588 437.249C366.864 437.456 367.09 437.719 367.249 438.02C367.408 438.32 367.497 438.65 367.509 438.987C367.522 439.324 367.457 439.66 367.319 439.97Z" fill="#263238"/>
<path opacity="0.4" d="M367.319 439.97C367.01 440.662 366.459 441.229 365.763 441.574C365.067 441.919 364.267 442.021 363.502 441.861C363.152 441.789 362.823 441.643 362.54 441.432C362.257 441.222 362.026 440.953 361.866 440.645C361.706 440.337 361.619 439.999 361.613 439.655C361.607 439.311 361.682 438.969 361.831 438.657C362.148 437.972 362.702 437.415 363.398 437.08C364.094 436.745 364.89 436.653 365.649 436.82C365.991 436.895 366.311 437.042 366.588 437.249C366.864 437.456 367.09 437.719 367.249 438.02C367.408 438.32 367.497 438.65 367.509 438.987C367.522 439.324 367.457 439.66 367.319 439.97Z" fill="white"/>
<path opacity="0.4" d="M365.716 439.474C365.552 439.839 365.262 440.137 364.894 440.318C364.527 440.499 364.105 440.551 363.702 440.466C363.519 440.427 363.347 440.349 363.199 440.239C363.052 440.128 362.931 439.987 362.847 439.826C362.763 439.665 362.717 439.488 362.713 439.308C362.709 439.128 362.747 438.95 362.824 438.785C362.988 438.422 363.279 438.124 363.646 437.943C364.013 437.762 364.434 437.71 364.837 437.794C365.02 437.832 365.192 437.91 365.34 438.02C365.488 438.131 365.608 438.272 365.692 438.433C365.776 438.594 365.822 438.771 365.826 438.951C365.83 439.131 365.792 439.31 365.716 439.474Z" fill="white"/>
<path d="M343.362 455.708C343.265 455.705 343.173 455.666 343.105 455.6C343.037 455.533 342.999 455.443 342.999 455.35C342.998 455.303 343.006 455.257 343.024 455.213C343.042 455.17 343.068 455.13 343.102 455.097C343.136 455.063 343.176 455.037 343.221 455.019C343.265 455.001 343.313 454.991 343.362 454.991C344.062 454.972 344.731 454.706 345.241 454.244C345.751 453.782 346.067 453.156 346.13 452.485L346.836 440.548C346.895 439.711 346.774 438.871 346.48 438.081C346.185 437.291 345.724 436.568 345.125 435.957C344.527 435.347 343.803 434.862 343 434.533C342.197 434.205 341.333 434.039 340.46 434.047C338.625 434.069 336.865 434.754 335.532 435.967C334.198 437.181 333.388 438.832 333.263 440.594L332.548 452.531C332.522 452.85 332.567 453.17 332.677 453.472C332.788 453.773 332.964 454.049 333.192 454.281C333.42 454.514 333.696 454.698 334.003 454.822C334.31 454.946 334.64 455.007 334.972 455.001C335.071 455.001 335.165 455.038 335.235 455.105C335.305 455.173 335.344 455.264 335.344 455.359C335.342 455.453 335.302 455.543 335.233 455.609C335.163 455.676 335.07 455.714 334.972 455.717C334.54 455.72 334.111 455.638 333.714 455.475C333.316 455.312 332.958 455.071 332.661 454.769C332.365 454.466 332.136 454.108 331.99 453.716C331.844 453.325 331.784 452.909 331.813 452.494L332.529 440.557C332.665 438.615 333.557 436.794 335.027 435.457C336.497 434.119 338.437 433.364 340.46 433.34C341.434 433.332 342.399 433.517 343.295 433.885C344.191 434.252 344.999 434.794 345.666 435.476C346.334 436.158 346.848 436.966 347.176 437.848C347.504 438.731 347.638 439.669 347.571 440.603L346.865 452.54C346.8 453.394 346.404 454.194 345.755 454.781C345.107 455.368 344.252 455.698 343.362 455.708Z" fill="#263238"/>
<path d="M335.583 455.35C335.583 455.919 335.249 456.387 334.915 456.387C334.581 456.387 334.323 455.919 334.362 455.35C334.4 454.78 334.696 454.303 335.039 454.303C335.383 454.303 335.622 454.771 335.583 455.35Z" fill="#263238"/>
<path d="M343.983 455.35C343.983 455.919 343.649 456.387 343.305 456.387C342.961 456.387 342.713 455.919 342.751 455.35C342.79 454.78 343.086 454.303 343.429 454.303C343.773 454.303 344.011 454.771 343.983 455.35Z" fill="#263238"/>
</svg>
